<svg width="333" height="296" viewBox="0 0 333 296" fill="none" xmlns="http://www.w3.org/2000/svg">
<g clip-path="url(#clip0_37_493)">
<path d="M258.441 261.651L262.816 245.397C271.329 243.02 280.293 242.757 288.93 244.631C274.899 251.703 272.226 270.751 261.275 282.021C257.833 285.51 253.65 288.179 249.036 289.831C244.422 291.483 239.496 292.075 234.622 291.563L223.334 295.441C223.659 287.535 225.694 279.793 229.298 272.749C232.902 265.705 237.991 259.526 244.212 254.639C247.729 251.932 251.574 249.678 255.654 247.932C256.64 254.737 258.441 261.651 258.441 261.651Z" fill="#F2F2F2"/>
<path d="M53.8788 238.54L46.4937 211.108C32.1266 207.095 16.9975 206.651 2.41992 209.814C26.1007 221.75 30.6125 253.899 49.0944 272.92C54.9042 278.808 61.9642 283.313 69.7512 286.101C77.5382 288.889 85.8526 289.888 94.0782 289.025L113.13 295.569C112.582 282.225 109.147 269.159 103.064 257.271C96.9809 245.382 88.3934 234.954 77.8932 226.705C71.9567 222.136 65.4686 218.333 58.5821 215.385C56.9182 226.872 53.8788 238.54 53.8788 238.54Z" fill="#F2F2F2"/>
<path d="M244.594 70.3296V25.7826C244.594 18.9446 241.878 12.3867 237.044 7.55155C232.21 2.71637 225.654 0 218.818 0H124.463C117.627 1.29197e-06 111.071 2.71638 106.237 7.55155C101.403 12.3867 98.6875 18.9446 98.6875 25.7826V270.171C98.6875 277.009 101.403 283.567 106.237 288.402C111.071 293.237 117.627 295.954 124.463 295.954H218.818C225.654 295.954 232.21 293.237 237.044 288.402C241.878 283.567 244.594 277.009 244.594 270.171V102.039C244.807 102.039 245.018 101.997 245.216 101.915C245.413 101.833 245.592 101.714 245.743 101.563C245.894 101.412 246.014 101.232 246.096 101.035C246.177 100.838 246.219 100.626 246.219 100.413V71.9557C246.219 71.5245 246.048 71.1109 245.743 70.8059C245.438 70.501 245.025 70.3296 244.594 70.3296Z" fill="#3F3D56"/>
<path d="M239.109 25.9595V269.995C239.109 275.064 237.11 279.928 233.546 283.532C229.981 287.135 225.14 289.186 220.072 289.238C220.002 289.246 219.932 289.249 219.861 289.247H125.048C119.943 289.247 115.048 287.218 111.439 283.608C107.829 279.997 105.801 275.101 105.801 269.995V25.9595C105.801 20.8537 107.829 15.9571 111.439 12.3467C115.048 8.73636 119.943 6.70787 125.048 6.7074H136.554C135.988 8.09683 135.773 9.60402 135.926 11.0963C136.08 12.5887 136.597 14.0204 137.434 15.2656C138.271 16.5108 139.4 17.5312 140.724 18.2371C142.047 18.943 143.524 19.3128 145.023 19.3139H199.078C200.577 19.3097 202.052 18.9379 203.373 18.2309C204.694 17.524 205.822 16.5035 206.657 15.259C207.492 14.0145 208.01 12.5841 208.163 11.0931C208.317 9.60215 208.103 8.09621 207.539 6.7074H219.861C224.966 6.70786 229.861 8.73635 233.471 12.3467C237.08 15.9571 239.108 20.8537 239.109 25.9595Z" fill="white"/>
<path d="M99.2098 95.251C98.6281 95.2503 98.0704 95.0188 97.659 94.6074C97.2477 94.196 97.0163 93.6381 97.0156 93.0562V78.1321C97.0165 77.5506 97.248 76.9932 97.6594 76.5823C98.0708 76.1715 98.6284 75.9407 99.2098 75.9407C99.7911 75.9407 100.349 76.1715 100.76 76.5823C101.172 76.9932 101.403 77.5506 101.404 78.1321V93.0563C101.403 93.6381 101.172 94.196 100.761 94.6074C100.349 95.0188 99.7915 95.2503 99.2098 95.251Z" fill="#3F3D56"/>
<path d="M98.7703 66.2806C98.1886 66.2799 97.6309 66.0485 97.2196 65.637C96.8082 65.2256 96.5769 64.6678 96.5762 64.0859V49.1618C96.577 48.5803 96.8086 48.0229 97.22 47.612C97.6314 47.2011 98.189 46.9703 98.7703 46.9703C99.3517 46.9703 99.9093 47.2011 100.321 47.612C100.732 48.0229 100.964 48.5803 100.964 49.1618V64.0859C100.964 64.6678 100.732 65.2256 100.321 65.637C99.9097 66.0485 99.352 66.2799 98.7703 66.2806Z" fill="#3F3D56"/>
<path d="M157.135 9.2178C157.135 8.63593 157.367 8.07809 157.778 7.66665C158.189 7.2552 158.747 7.02376 159.329 7.02307H174.249C174.83 7.02394 175.388 7.25555 175.799 7.66705C176.209 8.07854 176.44 8.63629 176.44 9.2178C176.44 9.79931 176.209 10.357 175.799 10.7685C175.388 11.18 174.83 11.4117 174.249 11.4125H159.329C158.747 11.4118 158.189 11.1804 157.778 10.7689C157.367 10.3575 157.135 9.79967 157.135 9.2178Z" fill="white"/>
<path d="M99.2098 120.71C98.6281 120.709 98.0704 120.478 97.659 120.066C97.2477 119.655 97.0163 119.097 97.0156 118.515V103.591C97.0165 103.009 97.248 102.452 97.6594 102.041C98.0708 101.63 98.6284 101.399 99.2098 101.399C99.7911 101.399 100.349 101.63 100.76 102.041C101.172 102.452 101.403 103.009 101.404 103.591V118.515C101.403 119.097 101.172 119.655 100.761 120.066C100.349 120.478 99.7915 120.709 99.2098 120.71Z" fill="#3F3D56"/>
<path d="M182.587 11.4125C183.799 11.4125 184.781 10.4299 184.781 9.21779C184.781 8.00568 183.799 7.02307 182.587 7.02307C181.375 7.02307 180.393 8.00568 180.393 9.21779C180.393 10.4299 181.375 11.4125 182.587 11.4125Z" fill="white"/>
<path d="M162.153 279.783L168.059 279.782L170.868 256.999H162.152L162.153 279.783Z" fill="#9E616A"/>
<path d="M160.646 277.854L162.309 277.854L168.798 275.214L172.276 277.854C174.242 277.854 176.127 278.635 177.517 280.025C178.907 281.415 179.688 283.301 179.688 285.267V285.508L160.647 285.508L160.646 277.854Z" fill="#2F2E41"/>
<path d="M189.589 279.783L195.494 279.782L198.303 256.999H189.588L189.589 279.783Z" fill="#9E616A"/>
<path d="M188.082 277.854L189.744 277.854L196.234 275.214L199.712 277.854H199.712C201.678 277.854 203.563 278.635 204.953 280.025C206.343 281.415 207.124 283.301 207.124 285.267V285.508L188.082 285.508L188.082 277.854Z" fill="#2F2E41"/>
<path d="M194.308 155.099L147.91 156.309L148.717 178.909C148.717 178.909 147.91 184.962 149.524 186.577C151.138 188.191 151.945 188.191 151.138 191.016C150.331 193.841 154.594 198.455 154.076 198.973C153.559 199.491 152.348 202.316 152.348 202.316L156.383 225.319C156.383 225.319 159.207 265.272 160.014 266.079C160.821 266.886 161.628 266.079 160.821 268.097C160.014 270.114 159.207 269.307 160.014 270.114C160.729 270.885 161.402 271.693 162.031 272.536H171.786C171.786 272.536 172.521 268.5 172.521 268.097C172.521 267.693 173.328 265.272 173.328 264.868C173.328 264.464 172.615 263.751 172.615 263.751C172.368 262.931 172.202 262.088 172.118 261.236C172.118 260.429 169.697 229.354 169.697 229.354L174.538 188.998L186.239 228.547C186.239 228.547 186.239 263.254 187.046 264.061C187.853 264.868 187.853 264.464 187.449 266.079C187.046 267.693 185.432 267.289 186.642 268.5C187.853 269.711 188.256 267.693 187.853 269.711L187.449 271.729L199.553 271.902C199.553 271.902 201.167 268.5 200.36 267.289C199.553 266.079 199.601 266.409 200.586 264.428C201.57 262.447 201.974 262.043 201.57 261.639C201.167 261.236 201.167 259.089 201.167 259.089L199.149 220.476C199.149 220.476 198.746 179.716 198.746 178.505C198.716 177.882 198.83 177.261 199.081 176.69V175.046L197.536 169.223L194.308 155.099Z" fill="#2F2E41"/>
<path d="M158.009 74.0456C164.917 74.0456 170.516 68.4445 170.516 61.5352C170.516 54.6258 164.917 49.0247 158.009 49.0247C151.102 49.0247 145.502 54.6258 145.502 61.5352C145.502 68.4445 151.102 74.0456 158.009 74.0456Z" fill="#9E616A"/>
<path d="M152.326 70.045L151.82 69.6392C151.811 69.6316 150.85 68.869 149.933 69.0025C149.724 69.0372 149.524 69.116 149.348 69.2336C149.171 69.3511 149.022 69.5048 148.909 69.6844C148.845 69.7832 148.752 69.8607 148.644 69.9069C148.535 69.9531 148.416 69.966 148.3 69.9439C147.11 69.7565 144.961 66.2345 143.879 62.6968C143.211 60.5151 142.424 56.5619 144.592 54.4551C144.76 53.5013 146.489 44.9039 154.09 44.665C161.91 44.4162 167.117 45.9959 168.373 48.9903C168.587 49.4998 168.802 50.0994 169.014 50.7726C169.122 51.1009 169.135 51.4531 169.051 51.7884C168.967 52.1238 168.79 52.4285 168.54 52.6674C168.314 52.8878 168.036 53.0486 167.732 53.1353C167.428 53.222 167.107 53.232 166.798 53.1643C166.76 53.5486 166.66 53.9242 166.5 54.276C165.817 55.7574 164.097 56.7241 162.119 56.7391C160.947 56.7219 159.787 56.498 158.693 56.0778L161.857 58.5128L154.295 57.5718L156.772 58.8965L156.276 59.1322C154.736 59.8149 153.466 60.9887 152.664 62.4703C151.861 63.9518 151.572 65.6576 151.842 67.3208L152.326 70.045Z" fill="#2F2E41"/>
<path d="M192.031 149.118C193.79 146.079 192.114 141.687 192.114 141.687C192.114 141.687 196.667 134.954 195.55 132.082L190.189 90.5255C190.189 90.5255 188.513 86.0555 184.602 83.8204C183.53 83.2072 177.899 83.4481 176.663 83.4585L172.652 81.7431C172.419 82.5942 168.044 73.723 168.021 74.6052C165.228 74.6052 163.429 74.9907 159.083 75.7228C151.538 76.9947 155.34 83.8144 155.818 84.6195C155.625 84.632 155.434 84.6586 155.246 84.699C154.263 84.8834 150.911 87.7833 150.911 87.7833L144.917 93.1083C135.884 100.199 137.906 111.262 137.906 111.262L151.078 124.522L145.308 151.124C145.308 151.124 147.76 155.075 146.492 156.846C145.224 158.617 157.665 158.109 157.665 158.109C166.25 161.936 196.499 158.701 196.499 158.701C196.08 157.606 192.031 149.118 192.031 149.118Z" fill="#E6E6E6"/>
<path d="M0.580144 296H332.42C332.574 296 332.721 295.938 332.829 295.83C332.938 295.721 332.999 295.574 332.999 295.42C332.999 295.266 332.938 295.119 332.829 295.01C332.721 294.902 332.574 294.84 332.42 294.84H0.580144C0.426643 294.84 0.279591 294.902 0.171206 295.01C0.0628209 295.119 0.00195312 295.266 0.00195312 295.42C0.00195312 295.574 0.0628209 295.721 0.171206 295.83C0.279591 295.938 0.426643 296 0.580144 296Z" fill="#CACACA"/>
<path d="M218.234 283.29C218.234 285.818 218.155 288.325 217.996 290.811C217.926 290.82 217.856 290.823 217.786 290.821H122.975C118.685 290.821 114.519 289.388 111.136 286.749C107.753 284.11 105.349 280.417 104.303 276.256C104.12 275.529 103.982 274.792 103.889 274.049C103.781 273.227 103.728 272.399 103.729 271.569V162.816C111.024 163.177 118.271 164.201 125.381 165.875C126.077 166.036 126.769 166.206 127.456 166.382C127.5 166.392 127.543 166.406 127.587 166.416C128.284 166.591 128.975 166.776 129.662 166.966C144.319 170.993 158.078 177.769 170.205 186.934C170.902 187.455 171.593 187.991 172.28 188.532L172.412 188.634C173.561 189.54 174.692 190.469 175.806 191.421C176.054 191.63 176.303 191.844 176.546 192.064C177.145 192.58 177.744 193.106 178.329 193.637C191.262 205.281 201.528 219.581 208.426 235.56C208.655 236.081 208.874 236.608 209.093 237.134C209.181 237.348 209.269 237.562 209.356 237.777C209.439 237.971 209.517 238.166 209.595 238.361C215.32 252.647 218.253 267.899 218.234 283.29Z" fill="#3F3D56"/>
<path opacity="0.2" d="M174.486 272.476C174.485 267.919 175.382 263.406 177.125 259.196C178.868 254.986 181.424 251.161 184.645 247.938C187.866 244.716 191.691 242.16 195.9 240.417C200.109 238.673 204.62 237.776 209.176 237.777H209.356C209.268 237.562 209.18 237.348 209.093 237.134C208.874 236.608 208.655 236.081 208.426 235.56H174.486V192.064H176.546C176.302 191.845 176.054 191.63 175.806 191.421C174.69 190.471 173.559 189.542 172.411 188.634L172.28 188.532V189.847H129.661V166.966C128.975 166.776 128.283 166.591 127.587 166.416C127.543 166.406 127.499 166.392 127.455 166.382V189.847H105.803V192.064H127.455V235.56H105.803V237.777H127.455V272.476H105.963C106.056 273.219 106.194 273.956 106.377 274.682H127.455V289.248H129.661V274.682H172.28V289.248H174.486V274.682H211.669V272.476H174.486ZM172.28 272.476H129.661V237.777H172.28V272.476ZM172.28 235.56H129.661V234.693C129.661 223.387 134.152 212.544 142.144 204.55C150.137 196.555 160.977 192.064 172.28 192.064V235.56Z" fill="black"/>
<path d="M148.872 178.721C148.434 178.229 148.109 177.647 147.92 177.016C147.732 176.384 147.683 175.72 147.779 175.068C147.875 174.416 148.113 173.793 148.475 173.243C148.838 172.693 149.317 172.229 149.878 171.884L144.195 149.54L151.964 152.518L156.282 173.618C156.799 174.599 156.938 175.736 156.673 176.813C156.407 177.89 155.757 178.832 154.843 179.461C153.93 180.09 152.818 180.362 151.717 180.226C150.617 180.089 149.604 179.554 148.872 178.721Z" fill="#9E616A"/>
<path d="M138.415 107.013L137.713 115.936C137.713 115.936 136.841 125.738 137.069 127.551C137.298 129.364 137.723 140.433 137.723 140.433L145.118 155.067L153.498 152.832L152.996 145.967L153.498 152.273L154.615 146.685L151.822 137.186L153.498 133.834L152.653 122.58L138.415 107.013Z" fill="#E6E6E6"/>
<path d="M331.099 167.218C330.112 166.047 328.713 165.302 327.191 165.136C326.974 165.113 326.757 165.101 326.539 165.101L214.232 164.996C213.419 164.993 212.614 165.157 211.866 165.478C211.119 165.798 210.446 166.269 209.888 166.86C208.813 168.029 208.225 169.565 208.246 171.154L208.229 189.402C208.22 192.708 208.936 195.977 210.327 198.976C209.551 201.919 208.254 204.7 206.497 207.185C205.951 207.973 205.637 208.898 205.593 209.856C205.549 210.814 205.776 211.764 206.248 212.599C206.72 213.433 207.417 214.117 208.261 214.573C209.104 215.028 210.059 215.237 211.015 215.174C212.199 215.101 213.378 214.967 214.548 214.772C217.953 214.239 221.202 212.973 224.07 211.062C226.277 211.757 228.577 212.111 230.89 212.112L309.861 212.186C312.84 212.197 315.79 211.615 318.542 210.475C321.294 209.335 323.791 207.658 325.889 205.544C330.164 201.179 332.539 195.3 332.497 189.19L332.513 171.277C332.538 169.799 332.037 168.36 331.099 167.218Z" fill="#62B6CC"/>
<path d="M301.754 181.555L238.984 181.497C238.804 181.497 238.627 181.461 238.461 181.392C238.295 181.323 238.145 181.223 238.018 181.096C237.892 180.969 237.791 180.818 237.723 180.652C237.654 180.486 237.619 180.309 237.619 180.129C237.619 179.95 237.655 179.772 237.724 179.607C237.792 179.441 237.893 179.29 238.02 179.164C238.147 179.037 238.298 178.937 238.463 178.868C238.629 178.8 238.807 178.764 238.986 178.765L301.756 178.823C302.119 178.823 302.466 178.968 302.722 179.224C302.978 179.481 303.121 179.828 303.121 180.191C303.121 180.553 302.976 180.9 302.72 181.156C302.464 181.412 302.116 181.556 301.754 181.555Z" fill="white"/>
<path d="M301.746 189.941L238.976 189.882C238.796 189.882 238.619 189.846 238.453 189.778C238.288 189.709 238.137 189.608 238.01 189.481C237.884 189.354 237.783 189.203 237.715 189.037C237.646 188.872 237.611 188.694 237.611 188.515C237.611 188.335 237.647 188.158 237.716 187.992C237.785 187.826 237.885 187.676 238.012 187.549C238.139 187.422 238.29 187.322 238.456 187.253C238.621 187.185 238.799 187.15 238.978 187.15L301.749 187.208C302.111 187.209 302.458 187.353 302.714 187.609C302.97 187.866 303.113 188.213 303.113 188.576C303.113 188.938 302.969 189.285 302.712 189.541C302.456 189.797 302.108 189.941 301.746 189.941Z" fill="white"/>
<path d="M246.283 198.274L238.968 198.267C238.789 198.267 238.611 198.231 238.445 198.163C238.28 198.094 238.129 197.993 238.003 197.866C237.876 197.739 237.775 197.588 237.707 197.423C237.639 197.257 237.603 197.079 237.604 196.9C237.604 196.72 237.639 196.543 237.708 196.377C237.777 196.211 237.877 196.061 238.004 195.934C238.131 195.807 238.282 195.707 238.448 195.638C238.614 195.57 238.791 195.535 238.971 195.535L246.285 195.542C246.647 195.543 246.994 195.687 247.249 195.944C247.505 196.2 247.648 196.547 247.648 196.909C247.647 197.271 247.503 197.618 247.248 197.874C246.992 198.13 246.645 198.274 246.283 198.274Z" fill="white"/>
<path d="M1.55969 96.5827C2.54646 95.4121 3.94606 94.6666 5.46787 94.5011C5.68425 94.4777 5.90173 94.4659 6.11938 94.4657L118.427 94.3608C119.24 94.3579 120.045 94.5218 120.792 94.8425C121.539 95.1632 122.213 95.6337 122.771 96.2251C123.846 97.3941 124.434 98.9302 124.413 100.519L124.43 118.767C124.439 122.073 123.722 125.342 122.332 128.341C123.108 131.284 124.405 134.065 126.161 136.55C126.708 137.338 127.021 138.263 127.065 139.221C127.11 140.179 126.883 141.129 126.411 141.964C125.939 142.798 125.241 143.482 124.398 143.938C123.555 144.393 122.6 144.602 121.644 144.539C120.46 144.466 119.281 144.332 118.111 144.137C114.706 143.604 111.457 142.338 108.588 140.427C106.382 141.122 104.082 141.476 101.769 141.477L22.7974 141.551C19.8191 141.561 16.8683 140.98 14.1167 139.84C11.365 138.7 8.86755 137.023 6.76945 134.909C2.49444 130.544 0.119199 124.665 0.162164 118.555L0.145414 100.642C0.120542 99.164 0.621815 97.7252 1.55969 96.5827Z" fill="#62B6CC"/>
<path d="M29.5352 109.556C29.5352 109.193 29.679 108.846 29.9347 108.59C30.1905 108.333 30.5375 108.189 30.8996 108.188L93.6699 108.13C94.0322 108.129 94.3797 108.273 94.636 108.529C94.8924 108.785 95.0366 109.132 95.037 109.494C95.0373 109.857 94.8937 110.204 94.6378 110.461C94.382 110.717 94.0347 110.862 93.6725 110.862L30.9022 110.92C30.5401 110.92 30.1928 110.777 29.9366 110.521C29.6803 110.265 29.5359 109.918 29.5352 109.556Z" fill="white"/>
<path d="M29.543 117.941C29.5431 117.579 29.6868 117.231 29.9426 116.975C30.1984 116.719 30.5454 116.574 30.9074 116.573L93.6777 116.515C94.04 116.515 94.3875 116.658 94.6438 116.914C94.9002 117.17 95.0444 117.517 95.0448 117.88C95.0451 118.242 94.9015 118.59 94.6457 118.846C94.3898 119.102 94.0425 119.247 93.6803 119.247L30.91 119.306C30.5479 119.306 30.2006 119.162 29.9444 118.906C29.6881 118.65 29.5438 118.303 29.543 117.941Z" fill="white"/>
<path d="M85.0059 126.274C85.006 125.912 85.1497 125.565 85.4054 125.308C85.6612 125.052 86.0082 124.908 86.3703 124.907L93.6853 124.9C94.0475 124.9 94.395 125.043 94.6514 125.299C94.9077 125.555 95.052 125.902 95.0523 126.265C95.0526 126.627 94.9091 126.975 94.6532 127.231C94.3973 127.488 94.0501 127.632 93.6878 127.632L86.3729 127.639C86.0108 127.639 85.6635 127.495 85.4073 127.239C85.151 126.983 85.0066 126.636 85.0059 126.274Z" fill="white"/>
<path d="M227.762 54.3446C227.137 54.6581 226.587 55.1051 226.153 55.654C225.718 56.2028 225.409 56.8403 225.248 57.5215C225.086 58.2027 225.076 58.911 225.218 59.5966C225.36 60.2822 225.65 60.9283 226.069 61.4894L216.52 75.5736L225.36 75.688L233.072 62.296C233.968 61.5303 234.552 60.4626 234.714 59.295C234.875 58.1274 234.603 56.9412 233.948 55.9611C233.294 54.981 232.302 54.2751 231.162 53.9771C230.022 53.6792 228.812 53.81 227.762 54.3446Z" fill="#9E616A"/>
<path d="M230.794 67.6263L216.083 94.6836L215.952 94.6923C215.844 94.6995 211.164 95.0093 205.447 95.3197C204.483 95.3721 203.915 97.0827 202.909 97.1337C202.216 97.1688 199.658 100.384 198.959 100.418C192.728 100.714 189.154 103.562 186.783 103.34C183.57 103.073 179.289 94.2305 176.954 92.0058L176.9 91.9475L176.892 91.868C176.728 90.2454 177.122 88.6155 178.009 87.2471C178.896 85.8787 180.223 84.8535 181.771 84.3405C189.256 81.9034 197.205 81.2398 204.99 82.4022L209.418 83.0685L222.859 65.0114L230.794 67.6263Z" fill="#E6E6E6"/>
<path d="M310.158 15.2307C309.171 14.0601 307.771 13.3147 306.249 13.1492C306.033 13.1257 305.816 13.1139 305.598 13.1137L193.29 13.0088C192.477 13.0059 191.672 13.1699 190.925 13.4906C190.178 13.8113 189.505 14.2818 188.947 14.8732C187.871 16.0421 187.284 17.5783 187.304 19.1666L187.287 37.4151C187.279 40.7215 187.995 43.9896 189.386 46.9891C188.61 49.9323 187.313 52.7126 185.556 55.1981C185.009 55.9856 184.696 56.9113 184.652 57.869C184.608 58.8266 184.835 59.7772 185.307 60.6117C185.778 61.4461 186.476 62.1304 187.319 62.586C188.163 63.0415 189.117 63.2499 190.074 63.1871C191.257 63.1139 192.436 62.9798 193.606 62.7851C197.011 62.2517 200.26 60.9859 203.129 59.075C205.336 59.7697 207.635 60.1237 209.949 60.1249L288.92 60.1987C291.898 60.2096 294.849 59.628 297.601 58.4878C300.352 57.3476 302.85 55.6715 304.948 53.5571C309.223 49.1922 311.598 43.3129 311.555 37.2026L311.572 19.2902C311.597 17.8121 311.095 16.3733 310.158 15.2307Z" fill="#62B6CC"/>
<path d="M280.813 29.5684L218.042 29.5098C217.863 29.5096 217.685 29.4741 217.52 29.4053C217.354 29.3365 217.204 29.2357 217.077 29.1088C216.95 28.9818 216.85 28.8311 216.781 28.6653C216.713 28.4995 216.678 28.3218 216.678 28.1424C216.678 27.963 216.713 27.7854 216.782 27.6197C216.851 27.454 216.952 27.3035 217.079 27.1768C217.206 27.0501 217.356 26.9496 217.522 26.8811C217.688 26.8126 217.865 26.7774 218.045 26.7776L280.815 26.8362C281.177 26.8365 281.525 26.9808 281.78 27.2372C282.036 27.4937 282.18 27.8413 282.18 28.2036C282.179 28.5659 282.035 28.9132 281.779 29.1692C281.522 29.4251 281.175 29.5687 280.813 29.5684Z" fill="white"/>
<path d="M280.805 37.9538L218.034 37.8952C217.672 37.8948 217.325 37.7506 217.069 37.4941C216.813 37.2377 216.67 36.8901 216.67 36.5278C216.67 36.1655 216.814 35.8181 217.071 35.5622C217.327 35.3062 217.675 35.1626 218.037 35.163L280.807 35.2216C281.169 35.2219 281.517 35.3662 281.773 35.6226C282.028 35.879 282.172 36.2266 282.172 36.589C282.171 36.9513 282.027 37.2986 281.771 37.5546C281.514 37.8105 281.167 37.9541 280.805 37.9538Z" fill="white"/>
<path d="M225.342 46.287L218.027 46.2802C217.847 46.28 217.67 46.2445 217.504 46.1757C217.338 46.1069 217.188 46.0061 217.061 45.8792C216.935 45.7522 216.834 45.6015 216.766 45.4357C216.697 45.2699 216.662 45.0922 216.662 44.9128C216.662 44.7334 216.698 44.5558 216.767 44.3901C216.835 44.2244 216.936 44.0739 217.063 43.9472C217.19 43.8205 217.341 43.72 217.506 43.6515C217.672 43.583 217.85 43.5478 218.029 43.548L225.344 43.5548C225.706 43.5557 226.053 43.7002 226.308 43.9566C226.563 44.213 226.707 44.5602 226.706 44.9222C226.706 45.2841 226.562 45.6311 226.306 45.887C226.05 46.1429 225.703 46.2867 225.342 46.287Z" fill="white"/>
</g>
<defs>
<clipPath id="clip0_37_493">
<rect width="333" height="296" fill="white"/>
</clipPath>
</defs>
</svg>
