<svg width="339" height="201" viewBox="0 0 339 201" fill="none" xmlns="http://www.w3.org/2000/svg">
<g clip-path="url(#clip0_51_4004)">
<path d="M338.727 116.964L319.807 25.9002C318.35 18.8833 311.461 14.3684 304.451 15.8252L245.961 27.9797L236.404 29.9646L116.028 54.9797L65.384 65.5051L10.3473 76.9423C3.3364 78.399 -1.18373 85.288 0.272935 92.2994L19.193 183.363C20.6497 190.38 27.5438 194.895 34.5548 193.438L72.1336 185.632L97.1917 180.422L105.609 178.671L131.935 173.199L208.694 157.253L238.7 151.014L240.24 150.698L268.656 144.793L285.414 141.306L291.563 140.028L328.658 132.321C335.669 130.864 340.184 123.975 338.727 116.964ZM328.43 131.231L291.785 138.849L284.752 140.311L268.623 143.658L240.196 149.569L239.212 149.775L208.761 156.102L131.863 172.082L105.47 177.57L97.3585 179.254L72.2003 184.481L34.3268 192.354C27.9052 193.689 21.6171 189.563 20.2827 183.141L20.2605 183.019C11.4982 140.867 29.3953 99.3718 62.4706 76.0471C73.846 68.0182 87.0117 62.1467 101.512 59.1331L116.923 55.9305L235.998 31.1823L253.5 27.546L304.673 16.9094C311.095 15.575 317.383 19.7006 318.717 26.1226L337.643 117.187C338.977 123.609 334.852 129.897 328.43 131.231Z" fill="#3F3D56"/>
<path d="M81.0432 24.2787C79.081 17.1244 94.9069 10.9895 99.0628 16.7508C99.6407 15.9318 101.776 15.4342 102.756 15.6855C103.715 16.004 104.602 16.5096 105.364 17.173C106.47 18.0223 107.615 18.9017 108.294 20.1228C108.977 21.3389 109.083 22.9973 108.163 24.0526C107.434 24.8918 105.284 25.4345 104.188 25.6556C103.424 25.8114 102.781 25.9371 102.229 26.0275C101.726 25.3041 101.495 24.427 101.575 23.5501C100.822 24.0582 100.335 24.8767 100.249 25.7813C100.234 25.9672 106.424 48.7468 106.424 48.7468C105.681 49.1702 104.898 49.5218 104.088 49.7971C102.485 47.3467 101.257 44.6705 100.445 41.8571C100.258 43.7384 100.282 45.6346 100.515 47.5106C100.639 48.5625 100.817 49.6075 101.048 50.6413C93.691 52.2293 82.626 51.7067 77.8121 44.9527L77.8097 44.8688C77.8008 44.2342 77.2791 43.7269 76.6445 43.7358C76.1766 43.7423 75.7594 44.0319 75.5896 44.4681C75.4728 44.766 75.3653 45.0239 75.2694 45.2291C73.8675 40.2139 75.6815 34.4097 81.0432 24.2787Z" fill="#2F2E41"/>
<path d="M131.934 180.488L105.608 185.959L105.469 184.858L101.572 153.621C101.572 153.621 99.5983 170.735 97.3577 186.543C97.3021 186.932 97.2465 187.321 97.1909 187.711L72.1328 192.92L72.1995 191.77L75.2908 138.948L77.8205 115.918C77.4146 120.75 78.9325 115.918 80.6004 103.686C84.2588 102.524 113.214 101.957 113.214 101.957L128.76 129.791C128.76 129.791 128.865 130.814 129.054 132.587V132.593C129.56 137.302 130.639 159.637 131.862 179.37C131.884 179.743 131.912 180.115 131.934 180.488Z" fill="#2F2E41"/>
<path d="M52.876 149.679C54.5681 148.515 55.0255 146.214 53.9075 144.491C53.7956 144.324 53.67 144.167 53.5321 144.021L59.538 132.232L54.6284 127.079L48.1471 144.119C46.9929 145.391 46.8409 147.281 47.777 148.721C48.8823 150.387 51.1285 150.841 52.7939 149.735C52.8215 149.717 52.8489 149.698 52.876 149.679Z" fill="#FFB6B6"/>
<path d="M165.235 121.605C163.201 121.315 161.767 119.459 162.001 117.418C162.027 117.219 162.07 117.022 162.128 116.83L151.502 108.948L153.604 102.148L166.994 114.52C168.593 115.145 169.571 116.77 169.374 118.477C169.126 120.46 167.317 121.867 165.333 121.618C165.3 121.614 165.267 121.61 165.235 121.605Z" fill="#FFB6B6"/>
<path d="M93.3405 45.2876C100.459 45.2876 106.23 39.5165 106.23 32.3975C106.23 25.2785 100.459 19.5074 93.3405 19.5074C86.2219 19.5074 80.4512 25.2785 80.4512 32.3975C80.4512 39.5165 86.2219 45.2876 93.3405 45.2876Z" fill="#FFB6B6"/>
<path d="M216.649 132.904L216.555 133.027C216.555 133.027 216.922 131.136 216.649 132.904Z" fill="#2F2E41"/>
<path d="M244.48 32.9664C252.537 32.9664 259.068 26.4349 259.068 18.3778C259.068 10.3207 252.537 3.78918 244.48 3.78918C236.424 3.78918 229.893 10.3207 229.893 18.3778C229.893 26.4349 236.424 32.9664 244.48 32.9664Z" fill="#FFB6B6"/>
<path d="M227.014 15.8256C228.586 16.3139 230.103 16.6017 231.125 15.3116C232.148 14.0215 231.881 12.5463 233.402 11.9244C234.675 11.4977 236.06 11.5619 237.288 12.1043C237.509 12.1865 237.725 12.279 237.935 12.3716C238.054 12.2687 238.172 12.1711 238.3 12.0786C239.267 11.3909 240.461 11.1002 241.636 11.2665C240.777 11.6813 242.295 16.2477 241.84 17.0861C242.261 17.2968 242.688 17.5075 243.12 17.6874C246.798 19.1923 248.747 14.984 252.157 12.9421C250.471 17.383 251.782 18.9661 254.254 23.0215L254.351 23.2579C254.105 22.194 257.338 20.9655 257.338 22.5075C257.195 24.0873 256.85 25.6421 256.31 27.1334C259.481 22.3584 261.352 16.7713 260.123 11.4104C259.861 10.2847 259.743 9.07686 259.028 8.16194C258.314 7.2522 256.998 6.71762 255.96 7.23161C255.567 1.90418 250.254 1.27749 244.927 1.6708C243.033 1.81058 241.899 -0.868759 240.397 0.29272C239.112 1.28472 238.1 2.58513 236.954 3.74162C235.808 4.89811 234.451 5.95178 232.847 6.23962C231.83 6.41953 230.683 6.31158 229.871 6.9541C228.931 7.69939 228.921 9.01006 228.926 10.2694C229.846 10.2431 230.753 10.4918 231.531 10.9838C230.579 11.0077 229.658 11.3315 228.9 11.909C228.885 11.918 228.872 11.9283 228.859 11.9398C228.581 14.0575 228.694 14.5047 227.014 15.8256Z" fill="#2F2E41"/>
<path d="M142.723 89.4052H142.878L127.221 74.21L114.987 61.1571C114.991 61.0205 114.993 60.9426 114.993 60.9426L114.62 60.7664C114.62 60.7664 102.316 53.4627 101.896 53.5032L100.008 48.8759L84.2089 45.5244L81.072 51.839L74.9468 55.3853C73.5297 55.8595 72.2234 56.6158 71.1066 57.6087L70.5083 57.9551L70.5526 58.1369C68.549 60.1511 67.3998 62.8607 67.3445 65.7012L61.2767 87.6582L61.2712 87.7372L50.166 137.052L57.986 137.441L77.8193 85.3376C78.4843 85.1881 73.3275 139.452 73.9275 139.271C82.3298 136.739 136.276 136.546 129.84 130.11C127.202 127.471 116.038 98.8221 115.405 89.4052C115.32 88.1484 115.247 86.8803 115.186 85.613C117.383 86.7384 119.516 87.9838 121.577 89.3434L121.666 89.4052L156.39 113.428L161.949 107.915L142.723 89.4052Z" fill="#62B6CC"/>
<path d="M74.008 25.2838C72.0458 18.1295 87.8718 11.9946 92.0276 17.756C92.6055 16.9369 94.7411 16.4393 95.721 16.6906C96.6801 17.0091 97.5666 17.5147 98.329 18.1781C99.4345 19.0274 100.58 19.9068 101.259 21.1279C101.942 22.344 102.047 24.0024 101.128 25.0577C100.399 25.8969 98.2486 26.4397 97.1531 26.6608C96.3893 26.8166 95.7461 26.9422 95.1934 27.0326C94.6913 26.3092 94.46 25.4321 94.5401 24.5552C93.7868 25.0634 93.3002 25.8818 93.2135 26.7864C93.1985 26.9723 99.3892 49.7519 99.3892 49.7519C98.6454 50.1753 97.863 50.5269 97.0526 50.8022C95.4494 48.3519 94.2215 45.6756 93.4095 42.8622C93.2229 44.7435 93.2465 46.6397 93.4798 48.5157C93.604 49.5676 93.7818 50.6126 94.0125 51.6464C86.6559 53.2344 75.5909 52.7118 70.7769 45.9578L70.7745 45.874C70.7656 45.2393 70.2439 44.732 69.6093 44.7409C69.1414 44.7475 68.7242 45.0371 68.5545 45.4732C68.4377 45.7711 68.3302 46.0291 68.2343 46.2342C66.8323 41.219 68.6464 35.4148 74.008 25.2838Z" fill="#2F2E41"/>
<path d="M176.376 61.1966C176.357 61.2148 176.34 61.234 176.321 61.2524C173.424 58.3766 168.757 58.3513 165.828 61.1955C162.889 64.0508 162.789 68.7382 165.605 71.7155L165.603 71.7173L165.673 71.7895L176.042 82.466L186.79 72.0266L186.76 71.9958C186.778 71.9786 186.797 71.9627 186.815 71.9452C189.783 69.0625 189.852 64.3194 186.97 61.3512C184.087 58.383 179.344 58.3138 176.376 61.1966Z" fill="#62B6CC"/>
<path d="M268.656 152.081L240.24 157.986L240.195 156.857L240.117 154.839L239.211 157.063L238.7 158.303L208.693 164.541L208.76 163.39L209.355 152.949L215.727 133.116L217.873 126.443L262.829 122.662C262.829 122.668 262.835 122.668 262.835 122.674C266.76 129.841 268.284 140.388 268.623 150.947C268.639 151.325 268.65 151.703 268.656 152.081Z" fill="#2F2E41"/>
<path d="M236.802 36.0542L253.365 34.6344L256.205 38.8937C256.205 38.8937 272.294 48.8321 272.768 50.7251C273.241 52.6181 262.357 122.66 262.83 122.66C263.303 122.66 249.106 130.705 232.07 132.125C215.034 133.545 214.521 133.032 214.521 133.032L221.659 115.561L223.315 93.5547L221.896 51.9082L234.673 42.4431L236.802 36.0542Z" fill="#62B6CC"/>
<path d="M283.775 144.891C283.479 143.396 283.545 141.958 283.895 140.777L280.176 126.712L286.92 125.138L289.967 139.575C290.741 140.533 291.35 141.837 291.646 143.332C292.322 146.748 291.108 149.866 288.935 150.296C286.761 150.726 284.451 148.306 283.775 144.891Z" fill="#FFB6B6"/>
<path d="M263.09 49.4695C263.09 49.4695 271.534 45.9924 275.507 52.4499C279.481 58.9074 289.912 134.907 289.912 134.907L281.219 136.149L264.083 74.8027L263.09 49.4695Z" fill="#62B6CC"/>
<path d="M171.605 121.293C172.623 120.158 173.299 118.888 173.6 117.694L183.975 107.495L178.978 102.7L168.992 113.562C167.838 113.991 166.649 114.802 165.631 115.937C163.307 118.529 162.76 121.83 164.41 123.309C166.06 124.788 169.281 123.886 171.605 121.293Z" fill="#FFB6B6"/>
<path d="M238.079 49.7816C238.079 49.7816 232.591 42.4827 225.879 46.0088C219.167 49.535 171.422 109.576 171.422 109.576L178.264 115.079L224.3 71.0624L238.079 49.7816Z" fill="#62B6CC"/>
</g>
<defs>
<clipPath id="clip0_51_4004">
<rect width="339" height="201" fill="white"/>
</clipPath>
</defs>
</svg>
