<svg width="259" height="313" viewBox="0 0 259 313" fill="none" xmlns="http://www.w3.org/2000/svg">
<g clip-path="url(#clip0_37_566)">
<path d="M1.85229 149.704C2.80394 151.298 4.09249 152.663 5.62718 153.704C7.16187 154.745 8.90538 155.435 10.7349 155.727C12.5644 156.019 14.4353 155.904 16.216 155.392C17.9968 154.88 19.6439 153.982 21.0413 152.763L60.1022 175.235L58.6464 151.808L21.7767 134.059C19.5783 131.84 16.6448 130.507 13.532 130.313C10.4192 130.118 7.3434 131.076 4.88746 133.004C2.43151 134.932 0.766034 137.698 0.206634 140.775C-0.352767 143.853 0.232769 147.03 1.85229 149.704Z" fill="#FFB8B8"/>
<path d="M114.936 239.729C103.349 255.997 103.764 283.213 106.996 313H161.779L164.161 307.425L167.337 313H218.943C218.943 313 214.974 237.34 207.828 234.95C200.683 232.561 114.936 239.729 114.936 239.729Z" fill="#2F2E41"/>
<path d="M161.78 69.7657C177.127 69.7657 189.569 57.2856 189.569 41.8908C189.569 26.4959 177.127 14.0159 161.78 14.0159C146.433 14.0159 133.992 26.4959 133.992 41.8908C133.992 57.2856 146.433 69.7657 161.78 69.7657Z" fill="#FFB8B8"/>
<path d="M181.864 76.9978L187.298 87.4457L224.884 104.253L215.004 200.163L210.846 210.095L213.093 218.72L207.676 225.085C213.113 230.02 213.804 235.186 210.846 240.53L193.538 244.507C193.538 244.507 97.2983 253.092 105.409 238.136C114.271 221.795 116.528 173.534 96.9639 147.744C80.3548 125.85 93.1063 97.4393 93.1063 97.4393L132.504 85.6287L146.995 76.9978L181.864 76.9978Z" fill="#3F3D56"/>
<path d="M174.117 1.05847C174.247 0.781324 174.458 0.549653 174.72 0.393212C174.983 0.236772 175.287 0.162703 175.592 0.180522C162.87 -0.582842 149.47 0.904563 138.826 7.93709C136.248 9.64085 133.817 11.673 131.011 12.909C130.878 12.9687 130.764 13.0617 130.678 13.179C130.592 13.2964 130.537 13.434 130.52 13.5786C130.503 13.7232 130.523 13.8699 130.579 14.0043C130.635 14.1387 130.724 14.2563 130.839 14.3458L131.147 14.5882C131.269 14.6839 131.362 14.8111 131.416 14.9562C131.471 15.1012 131.485 15.2584 131.456 15.4108C131.428 15.5632 131.359 15.7048 131.256 15.8204C131.152 15.9359 131.02 16.0209 130.872 16.0661C130.718 16.1132 130.581 16.2035 130.476 16.3263C130.371 16.4492 130.304 16.5995 130.282 16.7595C130.259 16.9195 130.283 17.0826 130.35 17.2295C130.417 17.3764 130.525 17.5011 130.66 17.5888L133.022 19.12C133.14 19.1957 133.239 19.3003 133.307 19.4239C133.375 19.5476 133.411 19.6865 133.412 19.8278C133.413 19.9691 133.378 20.1084 133.311 20.2328C133.244 20.3572 133.147 20.4628 133.029 20.5399C132.829 20.6638 132.619 20.7707 132.401 20.8593C132.266 20.9104 132.145 20.9956 132.052 21.1069C131.959 21.2181 131.896 21.3515 131.869 21.4943C131.842 21.637 131.853 21.7843 131.899 21.9219C131.945 22.0596 132.026 22.1829 132.134 22.28C133.157 23.1933 133.941 24.3437 134.419 25.6309C135.206 27.684 135.348 29.92 135.481 32.1157C136.294 28.9476 139.741 27.0827 142.997 26.8932C146.253 26.7037 149.428 27.7813 152.597 28.556C159.498 30.2383 166.666 30.5149 173.676 29.3694C171.295 34.1612 173.303 39.8769 175.324 44.8322L181.864 42.0201C190.847 36.9338 184.59 58.4495 181.232 61.4032C188.089 63.7878 206.035 37.3214 200.262 27.2821C197.259 22.0597 199.39 15.3242 193.486 10.3712C190.592 7.31538 184.814 8.67359 181.864 6.13382C180.703 5.1342 182.473 2.45988 180.877 1.87705C180.347 1.68347 174.205 0.863371 174.117 1.05847Z" fill="#2F2E41"/>
<path d="M127.047 88.3269C121.948 111.035 108.87 164.056 95.6013 175.144C94.7598 175.941 93.7509 176.539 92.6487 176.893C46.0103 188.291 31.0664 159.218 31.0664 159.218C31.0664 159.218 43.5649 153.108 43.8819 141.166L69.0872 149.011L91.0593 99.4108L94.2926 96.3854L94.3107 96.3673L127.047 88.3269Z" fill="#3F3D56"/>
<path d="M226.488 298.027C227.823 296.739 228.861 295.173 229.528 293.439C230.195 291.706 230.475 289.847 230.348 287.993C230.221 286.139 229.69 284.335 228.793 282.709C227.897 281.084 226.655 279.675 225.157 278.582L238.231 235.358L215.798 242.034L206.822 282.057C205.159 284.703 204.521 287.87 205.03 290.957C205.539 294.043 207.159 296.835 209.583 298.804C212.007 300.772 215.067 301.781 218.183 301.637C221.298 301.494 224.253 300.209 226.488 298.027Z" fill="#FFB8B8"/>
<path d="M214.522 101.835L224.884 104.253C224.884 104.253 267.716 187.849 257.395 203.778C247.074 219.706 234.429 272.441 234.429 272.441C234.429 272.441 215.727 268.712 208.582 259.155L221.667 196.61L208.17 144.046L214.522 101.835Z" fill="#3F3D56"/>
<path d="M17.9238 225.972L18.296 91.336C18.3066 88.611 19.3943 86.0015 21.3205 84.0799C23.2468 82.1584 25.8542 81.0817 28.5707 81.0862L129.935 81.3681C132.652 81.3787 135.253 82.4699 137.169 84.4021C139.084 86.3343 140.158 88.9499 140.153 91.6749L139.781 226.311C139.77 229.036 138.683 231.646 136.756 233.568C134.83 235.489 132.223 236.566 129.506 236.561L28.1418 236.279C25.4253 236.269 22.8238 235.178 20.9083 233.245C18.9927 231.313 17.9194 228.698 17.9238 225.972Z" fill="#E6E6E6"/>
<path d="M25.8106 185.328L26.0498 98.7716C26.0597 96.2196 27.0784 93.7756 28.8824 91.976C30.6864 90.1764 33.1283 89.1681 35.6725 89.1724L122.787 89.4146C125.331 89.4245 127.767 90.4464 129.561 92.256C131.355 94.0656 132.361 96.5151 132.357 99.0673L132.025 218.875C132.015 221.428 130.997 223.872 129.193 225.671C127.389 227.471 124.947 228.479 122.402 228.475L68.4369 228.325C57.1043 228.28 46.252 223.729 38.2607 215.668C30.2695 207.607 25.792 196.696 25.8106 185.328Z" fill="white"/>
<path d="M112.805 127.193H44.8783C43.7974 127.193 42.7608 126.762 41.9965 125.996C41.2321 125.229 40.8027 124.189 40.8027 123.105C40.8027 122.021 41.2321 120.981 41.9965 120.214C42.7608 119.447 43.7974 119.016 44.8783 119.016H112.805C113.886 119.016 114.923 119.447 115.687 120.214C116.451 120.981 116.881 122.021 116.881 123.105C116.881 124.189 116.451 125.229 115.687 125.996C114.923 126.762 113.886 127.193 112.805 127.193Z" fill="#62B6CC"/>
<path d="M59.8222 108.342H44.8783C43.7974 108.342 42.7608 107.911 41.9965 107.144C41.2321 106.377 40.8027 105.338 40.8027 104.253C40.8027 103.169 41.2321 102.129 41.9965 101.362C42.7608 100.596 43.7974 100.165 44.8783 100.165H59.8222C60.9031 100.165 61.9398 100.596 62.7041 101.362C63.4684 102.129 63.8978 103.169 63.8978 104.253C63.8978 105.338 63.4684 106.377 62.7041 107.144C61.9398 107.911 60.9031 108.342 59.8222 108.342Z" fill="#62B6CC"/>
<path d="M112.805 146.045H44.8783C43.7974 146.045 42.7608 145.614 41.9965 144.847C41.2321 144.081 40.8027 143.041 40.8027 141.956C40.8027 140.872 41.2321 139.832 41.9965 139.066C42.7608 138.299 43.7974 137.868 44.8783 137.868H112.805C113.886 137.868 114.923 138.299 115.687 139.066C116.451 139.832 116.881 140.872 116.881 141.956C116.881 143.041 116.451 144.081 115.687 144.847C114.923 145.614 113.886 146.045 112.805 146.045Z" fill="#62B6CC"/>
<path d="M112.805 164.896H44.8783C43.7974 164.896 42.7608 164.466 41.9965 163.699C41.2321 162.932 40.8027 161.892 40.8027 160.808C40.8027 159.724 41.2321 158.684 41.9965 157.917C42.7608 157.151 43.7974 156.72 44.8783 156.72H112.805C113.886 156.72 114.923 157.151 115.687 157.917C116.451 158.684 116.881 159.724 116.881 160.808C116.881 161.892 116.451 162.932 115.687 163.699C114.923 164.466 113.886 164.896 112.805 164.896Z" fill="#62B6CC"/>
<path d="M107.309 214.57C116.265 214.57 123.525 207.287 123.525 198.302C123.525 189.318 116.265 182.035 107.309 182.035C98.3523 182.035 91.0918 189.318 91.0918 198.302C91.0918 207.287 98.3523 214.57 107.309 214.57Z" fill="#62B6CC"/>
<path d="M105.096 206.769C104.816 206.769 104.54 206.703 104.29 206.578C104.039 206.452 103.821 206.27 103.653 206.045L99.2293 200.127C99.0868 199.937 98.983 199.721 98.924 199.491C98.865 199.26 98.8518 199.021 98.8852 198.785C98.9186 198.55 98.9979 198.323 99.1186 198.118C99.2393 197.914 99.3991 197.735 99.5888 197.592C99.7784 197.45 99.9943 197.346 100.224 197.287C100.454 197.228 100.693 197.215 100.927 197.249C101.162 197.283 101.388 197.362 101.592 197.484C101.795 197.605 101.973 197.766 102.115 197.956L105.01 201.827L112.444 190.641C112.575 190.443 112.744 190.272 112.941 190.139C113.138 190.006 113.359 189.914 113.592 189.867C113.824 189.82 114.064 189.819 114.297 189.865C114.53 189.911 114.751 190.003 114.949 190.135C115.146 190.267 115.316 190.437 115.448 190.635C115.58 190.833 115.671 191.055 115.718 191.288C115.764 191.522 115.764 191.762 115.717 191.996C115.67 192.229 115.578 192.451 115.446 192.649L106.598 205.963C106.437 206.204 106.222 206.403 105.97 206.543C105.717 206.683 105.435 206.76 105.147 206.768C105.13 206.768 105.113 206.769 105.096 206.769Z" fill="white"/>
<path d="M72.7277 49.7424C76.9793 49.7424 80.426 46.285 80.426 42.0201C80.426 37.7551 76.9793 34.2977 72.7277 34.2977C68.476 34.2977 65.0293 37.7551 65.0293 42.0201C65.0293 46.285 68.476 49.7424 72.7277 49.7424Z" fill="#F2F2F2"/>
<path d="M44.6515 271.874C48.9032 271.874 52.3498 268.416 52.3498 264.151C52.3498 259.886 48.9032 256.429 44.6515 256.429C40.3998 256.429 36.9531 259.886 36.9531 264.151C36.9531 268.416 40.3998 271.874 44.6515 271.874Z" fill="#F2F2F2"/>
<path d="M221.714 79.7233C225.966 79.7233 229.412 76.2659 229.412 72.0009C229.412 67.736 225.966 64.2786 221.714 64.2786C217.462 64.2786 214.016 67.736 214.016 72.0009C214.016 76.2659 217.462 79.7233 221.714 79.7233Z" fill="#F2F2F2"/>
</g>
<defs>
<clipPath id="clip0_37_566">
<rect width="259" height="313" fill="white"/>
</clipPath>
</defs>
</svg>
