<svg width="299" height="318" viewBox="0 0 299 318" fill="none" xmlns="http://www.w3.org/2000/svg">
<g clip-path="url(#clip0_37_530)">
<path d="M140.42 182.043C119.478 182.043 95.4111 158.841 74.1177 169.865C9.64715 203.242 18.5219 147.391 0 126.619L0.608076 125.401C21.0448 143.697 46.5608 158.583 74.3977 168.449C99.5535 177.365 124.898 181.497 147.682 180.406L147.721 181.87C145.315 181.986 142.881 182.044 140.42 182.043Z" fill="#F2F2F2"/>
<path d="M293.283 47.1894C276.59 59.813 243.374 55.825 233.066 77.4486C201.856 142.919 175.156 93.0463 147.83 87.6529L147.578 86.3156C174.933 88.5809 204.276 85.0661 232.432 76.1507C257.878 68.0946 280.58 56.1102 298.083 41.5068L298.999 42.6498C297.151 44.1926 295.246 45.7058 293.283 47.1894Z" fill="#F2F2F2"/>
<path d="M46.4008 84.6696C48.8183 84.6696 50.7781 82.0458 50.7781 78.8092C50.7781 75.5725 48.8183 72.9487 46.4008 72.9487C43.9832 72.9487 42.0234 75.5725 42.0234 78.8092C42.0234 82.0458 43.9832 84.6696 46.4008 84.6696Z" fill="#E6E6E6"/>
<path d="M230.358 139.511C232.775 139.511 234.735 136.887 234.735 133.65C234.735 130.413 232.775 127.79 230.358 127.79C227.94 127.79 225.98 130.413 225.98 133.65C225.98 136.887 227.94 139.511 230.358 139.511Z" fill="#E6E6E6"/>
<path d="M110.139 11.7209C112.557 11.7209 114.516 9.0971 114.516 5.86046C114.516 2.62382 112.557 0 110.139 0C107.722 0 105.762 2.62382 105.762 5.86046C105.762 9.0971 107.722 11.7209 110.139 11.7209Z" fill="#E6E6E6"/>
<path d="M188.616 216.327L183.526 185.763C183.424 185.145 183.571 184.511 183.936 184.001C184.302 183.49 184.855 183.146 185.474 183.042L208.593 179.204C209.213 179.102 209.848 179.249 210.359 179.614C210.87 179.979 211.215 180.531 211.319 181.149L216.409 211.713C216.512 212.332 216.364 212.966 215.999 213.476C215.634 213.986 215.08 214.331 214.461 214.434L191.342 218.273C190.722 218.375 190.087 218.227 189.576 217.863C189.065 217.498 188.72 216.946 188.616 216.327Z" fill="#3F3D56"/>
<path d="M188.851 206.801L185.579 187.152C185.483 186.573 185.621 185.979 185.963 185.501C186.305 185.023 186.823 184.701 187.403 184.604L207.272 181.305C207.853 181.209 208.447 181.347 208.926 181.689C209.404 182.03 209.728 182.547 209.825 183.127L214.355 210.324C214.451 210.904 214.312 211.498 213.97 211.975C213.628 212.453 213.11 212.776 212.53 212.873L200.221 214.916C197.636 215.343 194.987 214.728 192.856 213.206C190.724 211.685 189.284 209.381 188.851 206.801Z" fill="white"/>
<path d="M189.709 192.101C189.615 191.534 189.75 190.954 190.084 190.487C190.419 190.02 190.925 189.705 191.492 189.61L205.275 187.322C205.556 187.275 205.843 187.284 206.12 187.348C206.398 187.413 206.66 187.531 206.891 187.696C207.123 187.861 207.32 188.071 207.47 188.312C207.621 188.553 207.723 188.822 207.769 189.102C207.816 189.382 207.807 189.669 207.743 189.946C207.678 190.223 207.56 190.485 207.394 190.716C207.229 190.947 207.019 191.144 206.778 191.294C206.536 191.444 206.267 191.546 205.986 191.593L192.203 193.881C191.636 193.974 191.055 193.839 190.587 193.506C190.12 193.172 189.804 192.667 189.709 192.101Z" fill="#62B6CC"/>
<path d="M190.816 198.744C190.722 198.178 190.858 197.597 191.192 197.131C191.526 196.664 192.032 196.348 192.599 196.253L206.382 193.965C206.663 193.918 206.95 193.928 207.228 193.992C207.505 194.056 207.767 194.174 207.999 194.339C208.23 194.505 208.427 194.714 208.578 194.955C208.728 195.196 208.83 195.465 208.877 195.745C208.923 196.026 208.914 196.313 208.85 196.59C208.786 196.866 208.667 197.128 208.502 197.359C208.336 197.591 208.127 197.787 207.885 197.937C207.643 198.088 207.374 198.189 207.094 198.236L193.311 200.524C192.743 200.618 192.162 200.483 191.695 200.149C191.227 199.815 190.911 199.31 190.816 198.744Z" fill="#62B6CC"/>
<path d="M191.922 205.387C191.828 204.821 191.963 204.241 192.297 203.774C192.632 203.307 193.138 202.992 193.705 202.897L207.488 200.608C208.055 200.514 208.636 200.649 209.104 200.983C209.572 201.317 209.888 201.822 209.982 202.389C210.076 202.955 209.942 203.536 209.607 204.003C209.273 204.47 208.766 204.785 208.199 204.879L194.416 207.167C193.849 207.261 193.268 207.126 192.8 206.792C192.332 206.459 192.017 205.953 191.922 205.387Z" fill="#62B6CC"/>
<path d="M178.177 187.52C177.575 186.843 177.129 186.043 176.87 185.176C176.611 184.308 176.546 183.395 176.679 182.5C176.812 181.604 177.14 180.749 177.64 179.994C178.139 179.239 178.799 178.602 179.572 178.129L171.508 139.792L182.196 143.895L188.384 180.521C189.094 181.87 189.283 183.432 188.917 184.911C188.55 186.39 187.653 187.684 186.395 188.546C185.136 189.409 183.605 189.781 182.091 189.592C180.576 189.403 179.184 188.666 178.177 187.52Z" fill="#FFB8B8"/>
<path d="M174.619 308.773L183.416 308.772L187.601 274.892L174.617 274.893L174.619 308.773Z" fill="#FFB6B6"/>
<path d="M172.375 305.905L174.851 305.905L184.519 301.979L189.701 305.904H189.702C192.63 305.904 195.438 307.066 197.509 309.133C199.579 311.2 200.743 314.004 200.743 316.928V317.286L172.376 317.287L172.375 305.905Z" fill="#2F2E41"/>
<path d="M95.125 297.353L102.999 301.271L121.882 272.813L110.261 267.03L95.125 297.353Z" fill="#FFB6B6"/>
<path d="M94.3977 293.787L96.614 294.889L107.02 295.682L109.904 301.503L109.905 301.503C112.526 302.807 114.52 305.098 115.45 307.87C116.379 310.642 116.168 313.67 114.861 316.287L114.701 316.607L89.3125 303.974L94.3977 293.787Z" fill="#2F2E41"/>
<path d="M178.517 154.901L122.579 156.358L123.552 183.554C123.552 183.554 122.579 190.839 124.525 192.782C126.47 194.724 127.443 194.724 126.47 198.124C125.498 201.523 122.982 234.005 122.982 234.005C122.982 234.005 100.024 274.535 100.997 275.506C101.97 276.477 102.942 275.506 101.97 277.934C100.997 280.363 100.024 279.391 100.997 280.363C101.858 281.29 102.67 282.263 103.429 283.277H119.284C119.284 283.277 120.171 278.42 120.171 277.934C120.171 277.449 121.144 274.535 121.144 274.049C121.144 273.564 148.846 244.26 148.846 244.26L154.683 195.696L168.789 243.289C168.789 243.289 168.789 285.054 169.762 286.026C170.734 286.997 170.734 286.511 170.248 288.454C169.762 290.396 167.816 289.911 169.275 291.368C170.734 292.825 171.221 290.396 170.734 292.825L170.248 295.253L188.936 295.461C188.936 295.461 190.881 291.368 189.909 289.911C188.936 288.454 188.994 288.852 190.181 286.467C191.368 284.083 191.854 283.597 191.368 283.112C190.882 282.626 190.881 280.043 190.881 280.043C190.881 280.043 183.868 184.526 183.868 183.069C183.831 182.319 183.969 181.571 184.272 180.884V178.906L182.408 171.899L178.517 154.901Z" fill="#2F2E41"/>
<path d="M228.941 290.52L229.424 279.685C234.455 277 240.067 275.582 245.773 275.553C237.921 281.963 238.902 294.318 233.578 302.937C231.897 305.612 229.635 307.876 226.959 309.56C224.282 311.244 221.261 312.305 218.118 312.664L211.547 316.681C210.646 311.662 210.844 306.508 212.13 301.574C213.415 296.64 215.757 292.042 218.994 288.098C220.831 285.904 222.938 283.949 225.265 282.28C226.839 286.423 228.941 290.52 228.941 290.52Z" fill="#F2F2F2"/>
<path d="M149.552 59.5242L177.571 116.099L172.089 184.76L136.286 181.494L129.865 67.7865L149.552 59.5242Z" fill="#2F2E41"/>
<path d="M188.895 177.18L172.522 175.686L172.497 175.478L161.51 84.6496L163.969 77.8433C164.557 76.2273 165.554 74.7908 166.863 73.6733C168.172 72.5558 169.748 71.7954 171.438 71.4659C172.725 71.2183 174.049 71.2272 175.333 71.4927C176.618 71.7582 177.836 72.2748 178.919 73.0126C180.003 73.7505 180.929 74.695 181.645 75.7919C182.361 76.8887 182.852 78.1161 183.091 79.4034L186.031 95.2602L190.203 148.861L188.895 177.18Z" fill="#2F2E41"/>
<path d="M146.268 67.914L149.57 60.0265L159.789 60.2056L170.446 75.2556L181.631 122.219C181.631 122.219 185.648 156.525 181.631 158.336C177.613 160.147 163.997 157.91 163.997 157.91L146.268 67.914Z" fill="#62B6CC"/>
<path d="M159.789 60.2057C159.789 60.2057 181.803 72.9111 182.664 79.5433C183.525 86.1755 186.408 167.35 186.408 167.35L178.623 162.328L176.496 132.742L166.995 72.1697L159.789 60.2057Z" fill="#2F2E41"/>
<path d="M154.593 56.5101C162.88 56.5101 169.597 49.8035 169.597 41.5304C169.597 33.2574 162.88 26.5508 154.593 26.5508C146.307 26.5508 139.59 33.2574 139.59 41.5304C139.59 49.8035 146.307 56.5101 154.593 56.5101Z" fill="#FFB8B8"/>
<path d="M137.574 31.6878C139.259 29.0856 142.42 27.3512 145.485 27.8386C145.77 25.8858 146.587 24.0485 147.845 22.5269C149.104 21.0052 150.757 19.8575 152.624 19.2087C154.49 18.5599 156.5 18.4349 158.433 18.8472C160.366 19.2596 162.148 20.1935 163.586 21.5474C164.059 21.2149 164.61 21.01 165.186 20.9525C165.761 20.895 166.342 20.9868 166.872 21.2191C167.926 21.698 168.844 22.4334 169.541 23.3581C171.299 25.5477 172.43 28.1726 172.813 30.9531C173.196 33.7336 172.817 36.5659 171.716 39.1483C172.09 37.7887 170.726 36.5098 169.347 36.2047C167.968 35.8996 166.522 36.1882 165.124 35.9896C163.332 35.735 161.721 34.6971 159.926 34.4635C158.418 34.2672 156.901 34.6533 155.43 35.0403C153.959 35.4273 152.446 35.822 150.935 35.6429C149.425 35.4638 147.479 41.1796 147.505 45.2054C147.51 45.9683 147.352 46.9479 146.606 47.1097C145.686 47.3091 145.153 46.0418 144.278 45.6965C143.874 45.5811 143.442 45.6265 143.071 45.8233C142.701 46.02 142.421 46.3526 142.291 46.7511C142.181 47.1562 142.169 47.5818 142.257 47.9923C142.345 48.4029 142.529 48.7867 142.796 49.1116C143.334 49.7558 143.972 50.309 144.687 50.7498L144.327 51.0492C143.727 51.8401 142.483 51.8744 141.619 51.3851C140.792 50.8262 140.123 50.0653 139.674 49.1749C138.075 46.5194 136.673 43.6901 136.108 40.6433C135.544 37.5965 135.889 34.29 137.574 31.6878Z" fill="#2F2E41"/>
<path d="M104.896 142.626L134.871 110.518C135.478 109.869 136.318 109.487 137.208 109.456C138.097 109.425 138.962 109.747 139.614 110.352L163.901 132.954C164.551 133.56 164.934 134.399 164.965 135.287C164.996 136.175 164.674 137.039 164.068 137.69L134.093 169.797C133.485 170.446 132.645 170.829 131.756 170.86C130.866 170.891 130.001 170.569 129.349 169.964L105.062 147.362C104.412 146.756 104.029 145.916 103.998 145.029C103.967 144.141 104.29 143.277 104.896 142.626Z" fill="#E6E6E6"/>
<path d="M115.811 134.662L135.082 114.02C135.651 113.412 136.438 113.054 137.271 113.025C138.103 112.996 138.914 113.298 139.524 113.864L160.397 133.289C161.006 133.857 161.364 134.643 161.393 135.474C161.423 136.306 161.12 137.115 160.553 137.724L133.879 166.296C133.31 166.903 132.523 167.261 131.69 167.291C130.858 167.32 130.047 167.018 129.437 166.451L116.507 154.418C113.794 151.888 112.198 148.388 112.067 144.684C111.937 140.98 113.283 137.376 115.811 134.662Z" fill="white"/>
<path d="M133.085 122.925C133.641 122.331 134.41 121.981 135.224 121.952C136.038 121.924 136.83 122.219 137.426 122.772L151.905 136.247C152.501 136.802 152.852 137.57 152.881 138.383C152.909 139.195 152.613 139.986 152.058 140.581C151.502 141.176 150.733 141.526 149.919 141.555C149.105 141.583 148.313 141.288 147.717 140.733L133.238 127.259C132.642 126.704 132.292 125.936 132.264 125.123C132.235 124.311 132.53 123.52 133.085 122.925Z" fill="#E6E6E6"/>
<path d="M126.569 129.904C127.125 129.309 127.895 128.96 128.708 128.931C129.522 128.903 130.314 129.198 130.91 129.751L145.39 143.226C145.685 143.5 145.923 143.83 146.09 144.197C146.257 144.563 146.351 144.959 146.365 145.361C146.379 145.764 146.314 146.165 146.173 146.542C146.032 146.92 145.817 147.265 145.542 147.56C145.267 147.855 144.937 148.092 144.57 148.259C144.203 148.426 143.807 148.52 143.403 148.534C143 148.548 142.598 148.483 142.221 148.342C141.843 148.201 141.496 147.987 141.201 147.712L126.722 134.238C126.127 133.683 125.777 132.915 125.748 132.102C125.719 131.29 126.015 130.499 126.569 129.904Z" fill="#E6E6E6"/>
<path d="M120.054 136.882C120.61 136.288 121.379 135.939 122.193 135.91C123.007 135.882 123.798 136.176 124.395 136.73L138.874 150.205C139.47 150.759 139.821 151.527 139.849 152.34C139.878 153.153 139.582 153.944 139.027 154.539C138.471 155.134 137.702 155.484 136.888 155.513C136.074 155.541 135.282 155.246 134.686 154.691L120.206 141.217C119.611 140.662 119.261 139.894 119.232 139.081C119.204 138.269 119.499 137.478 120.054 136.882Z" fill="#E6E6E6"/>
<path d="M155.283 175.152L144.92 189.968L144.437 190.549C143.598 191.556 142.438 192.247 141.152 192.507C140.969 192.543 140.786 192.571 140.602 192.589C140.375 192.612 140.147 192.621 139.919 192.617C139.788 192.615 139.658 192.607 139.528 192.596C138.772 192.531 138.036 192.317 137.364 191.966L132.942 188.884C132.59 188.638 132.339 188.274 132.235 187.859C132.184 187.653 132.169 187.44 132.192 187.229C132.225 186.934 132.331 186.651 132.502 186.408L145.263 168.165C145.533 167.779 145.947 167.516 146.411 167.434C146.876 167.351 147.355 167.456 147.743 167.726L154.843 172.677C154.86 172.688 154.876 172.7 154.893 172.712C154.903 172.72 154.914 172.728 154.924 172.737C154.938 172.747 154.952 172.759 154.965 172.77C154.983 172.784 154.999 172.798 155.016 172.813C155.03 172.827 155.045 172.84 155.06 172.854L155.069 172.863C155.087 172.881 155.106 172.899 155.123 172.918C155.141 172.936 155.158 172.956 155.175 172.975C155.187 172.989 155.199 173.003 155.21 173.018L155.212 173.019C155.246 173.062 155.278 173.106 155.308 173.152C155.318 173.166 155.327 173.181 155.336 173.195L155.34 173.201C155.347 173.213 155.354 173.224 155.361 173.236C155.381 173.271 155.401 173.307 155.419 173.344C155.449 173.404 155.475 173.467 155.498 173.53C155.506 173.55 155.512 173.571 155.519 173.592C155.524 173.608 155.53 173.625 155.534 173.643L155.535 173.646L155.537 173.653C155.542 173.668 155.546 173.683 155.549 173.698C155.557 173.726 155.563 173.755 155.569 173.784C155.571 173.792 155.572 173.8 155.574 173.808C155.576 173.816 155.577 173.824 155.578 173.832C155.58 173.84 155.581 173.848 155.582 173.856L155.585 173.868C155.588 173.892 155.591 173.916 155.594 173.939C155.597 173.968 155.599 173.998 155.601 174.027C155.602 174.052 155.603 174.076 155.604 174.1C155.604 174.122 155.604 174.143 155.604 174.165C155.604 174.171 155.604 174.177 155.603 174.182C155.603 174.205 155.602 174.227 155.601 174.25C155.597 174.306 155.591 174.363 155.582 174.418C155.578 174.439 155.575 174.459 155.571 174.479C155.566 174.504 155.56 174.529 155.555 174.553C155.553 174.562 155.55 174.572 155.548 174.581C155.544 174.594 155.54 174.608 155.537 174.621C155.532 174.636 155.528 174.651 155.523 174.666L155.512 174.701C155.505 174.722 155.497 174.742 155.489 174.763C155.485 174.775 155.48 174.788 155.475 174.8C155.439 174.888 155.396 174.974 155.347 175.055C155.34 175.065 155.335 175.075 155.328 175.085C155.314 175.108 155.299 175.13 155.283 175.152Z" fill="white"/>
<path d="M148.265 175.715C149.105 175.715 149.787 175.035 149.787 174.196C149.787 173.357 149.105 172.677 148.265 172.677C147.425 172.677 146.744 173.357 146.744 174.196C146.744 175.035 147.425 175.715 148.265 175.715Z" fill="#62B6CC"/>
<path d="M131.082 190.246C130.48 189.569 130.033 188.769 129.774 187.902C129.515 187.034 129.45 186.121 129.583 185.225C129.716 184.33 130.044 183.475 130.544 182.72C131.044 181.965 131.703 181.328 132.476 180.855L124.412 142.518L135.101 146.621L141.288 183.246C141.998 184.595 142.188 186.157 141.821 187.637C141.454 189.116 140.557 190.41 139.299 191.272C138.041 192.135 136.509 192.507 134.995 192.318C133.48 192.129 132.088 191.392 131.082 190.246Z" fill="#FFB8B8"/>
<path d="M125.16 174.689L120.81 146.706L119.176 92.9644L120.391 76.8565C120.489 75.5511 120.845 74.278 121.439 73.1106C122.033 71.9432 122.852 70.9046 123.849 70.0547C124.846 69.2048 126.002 68.5603 127.25 68.1584C128.498 67.7565 129.813 67.6051 131.12 67.7129C132.836 67.8589 134.485 68.4456 135.907 69.416C137.328 70.3863 138.474 71.7073 139.234 73.2506L142.412 79.7533L141.277 171.444L125.16 174.689Z" fill="#2F2E41"/>
<path d="M261.981 317.196C261.982 317.302 261.961 317.407 261.921 317.504C261.88 317.602 261.821 317.691 261.746 317.765C261.671 317.84 261.583 317.899 261.485 317.939C261.387 317.98 261.282 318 261.176 318H44.5471C44.3336 318 44.1289 317.915 43.9779 317.765C43.827 317.614 43.7422 317.41 43.7422 317.196C43.7422 316.983 43.827 316.779 43.9779 316.628C44.1289 316.478 44.3336 316.393 44.5471 316.393H261.176C261.282 316.393 261.387 316.413 261.485 316.453C261.583 316.494 261.671 316.553 261.746 316.628C261.821 316.702 261.88 316.791 261.921 316.889C261.961 316.986 261.982 317.091 261.981 317.196Z" fill="#CCCCCC"/>
<path d="M142.843 47.6022C142.853 47.4325 142.904 47.2678 142.992 47.1226C143.08 46.9774 143.203 46.8561 143.35 46.7694C143.496 46.6828 143.661 46.6335 143.831 46.6258C144.001 46.6181 144.171 46.6524 144.324 46.7255C144.478 46.7986 144.611 46.9084 144.712 47.0451C144.813 47.1818 144.879 47.3412 144.904 47.5093C144.928 47.6774 144.911 47.849 144.854 48.0089C144.796 48.1688 144.7 48.3121 144.574 48.4262L146.316 51.2841C146.387 51.4013 146.409 51.5421 146.377 51.6754C146.344 51.8087 146.26 51.9237 146.143 51.995C146.025 52.0663 145.884 52.0882 145.751 52.0557C145.617 52.0233 145.502 51.9392 145.431 51.822L143.472 48.6086C143.276 48.5258 143.111 48.3847 142.998 48.2046C142.886 48.0245 142.832 47.8141 142.843 47.6022Z" fill="white"/>
<path d="M144.067 49.5451C144.132 49.6727 144.287 49.7239 144.415 49.6596C144.543 49.5952 144.594 49.4397 144.53 49.3121L144.063 48.3882C143.999 48.2607 143.843 48.2094 143.715 48.2737C143.587 48.3381 143.536 48.4936 143.6 48.6212L144.067 49.5451Z" fill="#2F2E41"/>
</g>
<defs>
<clipPath id="clip0_37_530">
<rect width="299" height="318" fill="white"/>
</clipPath>
</defs>
</svg>
