<svg width="332" height="295" viewBox="0 0 332 295" fill="none" xmlns="http://www.w3.org/2000/svg">
<g clip-path="url(#clip0_51_4026)">
<path d="M48.2627 236.904L38.1695 230.479C37.7059 224.838 37.561 219.175 37.7357 213.518L42.9714 214.854L37.8036 211.565C38.089 204.571 38.7211 199.958 38.7211 199.958C38.7211 199.958 59.1284 213.204 72.1436 231.159L69.9242 246.344L75.2171 235.725C76.5709 237.891 77.7871 240.139 78.8584 242.458C89.5818 265.868 90.6238 288.345 81.1857 292.663C71.7477 296.98 55.4036 281.502 44.6803 258.092C41.3559 250.834 39.5209 242.49 38.5701 234.43L48.2627 236.904Z" fill="#F0F0F0"/>
<path d="M27.5289 259.5L15.565 259.214C12.2502 254.624 9.19709 249.851 6.4202 244.918L11.5937 243.358L5.46813 243.211C2.09505 237.077 0.25 232.802 0.25 232.802C0.25 232.802 24.5713 233.6 45.0003 242.247L50.955 256.392L49.993 244.568C52.2722 245.723 54.4765 247.019 56.5928 248.451C77.8817 262.952 90.4005 281.655 84.5542 290.226C78.7079 298.797 56.7105 293.989 35.4216 279.488C28.8218 274.993 22.9348 268.797 17.9515 262.389L27.5289 259.5Z" fill="#F0F0F0"/>
<path d="M198.042 82.8069L188.667 81.7047L185.358 110.362L176.91 149.936C175.735 150.508 174.777 151.443 174.177 152.603C173.577 153.763 173.368 155.086 173.581 156.374C173.794 157.662 174.418 158.847 175.359 159.752C176.301 160.658 177.51 161.235 178.806 161.399C180.102 161.562 181.417 161.303 182.554 160.659C183.691 160.016 184.589 159.023 185.116 157.828C185.642 156.633 185.768 155.3 185.476 154.027C185.183 152.755 184.487 151.611 183.491 150.766L191.976 127.447L198.042 82.8069Z" fill="#FFB6B6"/>
<path d="M211.663 287.11H203.939L200.264 257.337L211.664 257.337L211.663 287.11Z" fill="#FFB6B6"/>
<path d="M213.631 294.593L188.725 294.592V294.277C188.725 291.708 189.746 289.244 191.564 287.427C193.382 285.611 195.848 284.59 198.419 284.59H198.42L213.632 284.59L213.631 294.593Z" fill="#2F2E41"/>
<path d="M270.942 282.901L263.358 284.364L254.1 255.827L265.293 253.667L270.942 282.901Z" fill="#FFB6B6"/>
<path d="M274.296 289.874L249.841 294.593L249.781 294.284C249.294 291.761 249.829 289.148 251.269 287.02C252.71 284.892 254.937 283.422 257.461 282.935L257.462 282.935L272.398 280.052L274.296 289.874Z" fill="#2F2E41"/>
<path d="M199.551 35.8434L204.039 44.4482L237.653 37.0394L233.971 20.356C231.056 7.15048 219.371 -2.38652 206.157 0.526051C192.942 3.43863 186.776 16.3458 189.691 29.5513L195.107 46.4168L200.588 45.2088L199.551 35.8434Z" fill="#2F2E41"/>
<path d="M187.564 130.754C187.564 130.754 184.255 147.287 188.667 171.536C193.079 195.784 194.182 206.256 194.182 206.256C194.182 206.256 190.873 210.113 193.079 212.318C195.285 214.522 193.079 218.931 193.079 218.931L198.043 272.389L215.139 269.633L212.933 219.482C212.933 219.482 215.139 215.073 214.036 213.971C212.933 212.869 215.139 206.256 215.139 206.256L217.897 153.9L234.993 211.216C234.993 211.216 233.338 213.42 234.993 215.073C236.647 216.727 239.956 224.993 239.956 224.993L250.986 263.571L268.634 260.264L258.707 216.176C258.707 216.176 259.81 213.42 258.156 211.767C257.673 211.261 257.321 210.646 257.128 209.974C256.936 209.302 256.91 208.593 257.053 207.909C257.053 207.909 258.707 206.256 256.501 204.051C254.295 201.847 253.192 193.029 253.192 193.029C253.192 193.029 251.538 134.06 246.023 130.754C240.508 127.447 187.564 130.754 187.564 130.754Z" fill="#2F2E41"/>
<path d="M212.5 39.5664C221.029 39.5664 227.942 32.6576 227.942 24.1353C227.942 15.6129 221.029 8.70422 212.5 8.70422C203.972 8.70422 197.059 15.6129 197.059 24.1353C197.059 32.6576 203.972 39.5664 212.5 39.5664Z" fill="#FFB6B6"/>
<path d="M234.263 43.8879C234.263 43.8879 245.472 42.5759 248.781 45.8826L245.472 112.567C245.472 112.567 247.678 114.22 246.575 118.078C245.934 120.61 245.934 123.261 246.575 125.793C246.575 125.793 249.884 129.651 248.229 131.305C246.575 132.958 187.013 131.856 187.013 131.856C187.013 131.856 184.807 127.998 188.116 125.793C191.425 123.589 189.771 117.527 189.771 117.527C189.771 117.527 188.668 115.874 191.425 113.118C194.183 110.362 196.389 87.7669 196.389 87.7669L189.219 60.2114C189.219 60.2114 196.436 52.0712 204.685 51.4569L234.263 43.8879Z" fill="#E6E6E6"/>
<path d="M197.762 60.5908L189.218 60.2115C189.218 60.2115 184.255 70.1315 183.703 78.9493L180.666 111.844L200.248 114.771L197.762 60.5908Z" fill="#E6E6E6"/>
<path d="M199.271 24.9005L193.534 17.5256C193.196 15.9729 193.487 14.3495 194.342 13.0102C195.198 11.6709 196.55 10.7246 198.102 10.3782L219.771 5.60198C221.325 5.26397 222.95 5.55432 224.29 6.40959C225.63 7.26486 226.577 8.61551 226.924 10.1664L226.936 10.2197L225.384 19.1252L225.112 19.0765C211.664 16.6804 207.833 17.5232 199.49 24.7119L199.271 24.9005Z" fill="#2F2E41"/>
<path d="M256.984 142.735L255.95 99.3403L254.847 68.4781L241.611 70.1315L248.72 143.895C247.963 144.844 247.509 145.997 247.416 147.207C247.323 148.416 247.595 149.625 248.196 150.679C248.798 151.732 249.702 152.58 250.792 153.115C251.882 153.649 253.107 153.844 254.309 153.676C255.51 153.507 256.634 152.982 257.534 152.168C258.434 151.354 259.069 150.29 259.357 149.111C259.646 147.933 259.573 146.696 259.15 145.559C258.727 144.422 257.973 143.438 256.984 142.735Z" fill="#FFB6B6"/>
<path d="M239.125 46.813L248.78 45.8827C248.78 45.8827 250.435 45.8827 252.089 51.3938C253.744 56.9049 262.839 115.151 262.839 115.151L242.714 116.976L239.125 46.813Z" fill="#E6E6E6"/>
<path d="M179.139 115.669H177.848V80.3427C177.848 77.6577 177.319 74.9989 176.291 72.5183C175.263 70.0377 173.756 67.7837 171.856 65.8851C169.956 63.9865 167.7 62.4805 165.218 61.453C162.736 60.4255 160.075 59.8966 157.388 59.8966H82.4916C79.8047 59.8966 77.1442 60.4254 74.6618 61.4529C72.1794 62.4804 69.9239 63.9865 68.024 65.8851C66.1241 67.7837 64.617 70.0376 63.5887 72.5182C62.5605 74.9989 62.0313 77.6576 62.0313 80.3426V274.147C62.0312 279.569 64.1869 284.77 68.0239 288.604C71.861 292.439 77.0652 294.593 82.4916 294.593H157.388C162.814 294.593 168.019 292.439 171.856 288.604C175.693 284.77 177.848 279.57 177.848 274.147V140.815H179.139V115.669Z" fill="#3F3D56"/>
<path d="M158.212 65.216H148.436C148.886 66.3174 149.057 67.5125 148.936 68.6959C148.814 69.8793 148.403 71.0147 147.739 72.002C147.075 72.9893 146.179 73.7983 145.128 74.3578C144.077 74.9172 142.905 75.2098 141.715 75.2099H98.8077C97.6173 75.2098 96.4451 74.9172 95.3945 74.3578C94.344 73.7983 93.4472 72.9893 92.7832 72.002C92.1192 71.0147 91.7083 69.8793 91.5868 68.6959C91.4654 67.5125 91.637 66.3174 92.0866 65.2159H82.9554C78.903 65.2159 75.0165 66.8246 72.1511 69.6881C69.2856 72.5516 67.6758 76.4353 67.6758 80.4848V274.005C67.6758 276.01 68.071 277.995 68.8389 279.848C69.6067 281.7 70.7322 283.384 72.1511 284.801C73.5699 286.219 75.2543 287.344 77.1081 288.111C78.9619 288.879 80.9488 289.274 82.9553 289.274H158.212C160.219 289.274 162.206 288.879 164.06 288.111C165.914 287.344 167.598 286.219 169.017 284.801C170.436 283.384 171.561 281.7 172.329 279.848C173.097 277.995 173.492 276.01 173.492 274.005V80.4848C173.492 78.4797 173.097 76.4942 172.329 74.6417C171.561 72.7892 170.436 71.106 169.017 69.6881C167.598 68.2703 165.914 67.1456 164.06 66.3782C162.206 65.6109 160.219 65.216 158.212 65.216Z" fill="white"/>
<path d="M108.503 135.546L110.584 142.749L137.177 142.28L136.944 129.082C136.76 118.634 129.371 109.624 118.917 109.808C108.463 109.993 101.815 118.825 102 129.272L103.519 142.874L107.854 142.797L108.503 135.546Z" fill="#2F2E41"/>
<path d="M120.105 140.583C126.695 140.583 132.037 135.244 132.037 128.659C132.037 122.075 126.695 116.736 120.105 116.736C113.516 116.736 108.174 122.075 108.174 128.659C108.174 135.244 113.516 140.583 120.105 140.583Z" fill="#FFB6B6"/>
<path d="M143.855 147.253L143.584 152.268C137.858 158.22 130.047 161.724 121.79 162.044C113.534 162.363 105.475 159.474 99.305 153.982C99.0292 153.74 98.7588 153.486 98.4941 153.227C100.149 151.585 104.715 147.529 109.783 147.154L132.637 145.715C132.637 145.715 141.296 144.701 143.855 147.253Z" fill="#E4E4E4"/>
<path d="M133.166 120.287C133.15 119.374 132.864 118.486 132.344 117.736C132.289 117.658 132.234 117.587 132.178 117.515C131.736 116.951 131.17 116.497 130.523 116.189C129.876 115.88 129.167 115.725 128.45 115.735L119.875 115.889L111.304 116.038C110.077 116.063 108.908 116.572 108.056 117.455C107.203 118.339 106.735 119.523 106.754 120.75L108.795 124.856L109.97 127.215L110.163 127.105C117.58 122.938 120.613 122.883 130.43 126.757L130.629 126.834L131.406 124.845L133.171 120.331L133.166 120.287Z" fill="#2F2E41"/>
<path d="M145.784 149.739C143.338 152.865 140.335 155.514 136.927 157.553L136.393 147.975L143.854 147.253C143.854 147.253 144.748 147.253 145.784 149.739Z" fill="#E4E4E4"/>
<path d="M120.554 162.607C112.584 162.616 104.89 159.692 98.9389 154.394C98.6578 154.147 98.3801 153.887 98.1084 153.621C94.9049 150.597 92.3563 146.949 90.6204 142.902C88.8844 138.855 87.998 134.495 88.0159 130.092C88.0159 121.468 91.444 113.197 97.5461 107.1C103.648 101.002 111.924 97.576 120.554 97.576C129.184 97.576 137.46 101.002 143.562 107.1C149.664 113.197 153.092 121.468 153.092 130.092C153.119 137.337 150.698 144.379 146.22 150.078C143.178 153.981 139.285 157.138 134.837 159.31C130.39 161.481 125.504 162.609 120.554 162.607ZM120.554 98.6783C112.22 98.6877 104.23 102 98.3365 107.889C92.4433 113.778 89.1283 121.763 89.1189 130.092C89.1018 134.347 89.9588 138.56 91.6368 142.471C93.3148 146.382 95.7782 149.907 98.8744 152.828C99.1379 153.086 99.401 153.332 99.6695 153.568C102.885 156.418 106.651 158.579 110.734 159.918C114.818 161.257 119.132 161.747 123.412 161.356C127.692 160.966 131.847 159.703 135.62 157.647C139.393 155.59 142.704 152.783 145.35 149.399C149.676 143.894 152.016 137.091 151.989 130.092C151.98 121.763 148.665 113.778 142.772 107.889C136.879 102 128.888 98.6877 120.554 98.6783Z" fill="#3F3D56"/>
<path d="M149.805 207.686H92.4833C91.9117 207.686 91.3458 207.574 90.8177 207.355C90.2896 207.137 89.8098 206.816 89.4057 206.412C89.0015 206.009 88.6809 205.529 88.4622 205.001C88.2434 204.474 88.1309 203.908 88.1309 203.337C88.1309 202.766 88.2434 202.2 88.4622 201.672C88.6809 201.145 89.0015 200.665 89.4057 200.261C89.8098 199.858 90.2896 199.537 90.8177 199.319C91.3458 199.1 91.9117 198.988 92.4833 198.988H149.805C150.376 198.988 150.942 199.1 151.47 199.319C151.999 199.537 152.478 199.858 152.882 200.261C153.287 200.665 153.607 201.145 153.826 201.672C154.045 202.2 154.157 202.766 154.157 203.337C154.157 203.908 154.045 204.474 153.826 205.001C153.607 205.529 153.287 206.009 152.882 206.412C152.478 206.816 151.999 207.137 151.47 207.355C150.942 207.574 150.376 207.686 149.805 207.686Z" fill="#62B6CC"/>
<path d="M149.805 221.464H92.4833C91.329 221.464 90.2219 221.006 89.4057 220.19C88.5894 219.374 88.1309 218.268 88.1309 217.115C88.1309 215.961 88.5894 214.855 89.4057 214.039C90.2219 213.223 91.329 212.765 92.4833 212.765H149.805C150.959 212.765 152.066 213.223 152.882 214.039C153.699 214.855 154.157 215.961 154.157 217.115C154.157 218.268 153.699 219.374 152.882 220.19C152.066 221.006 150.959 221.464 149.805 221.464Z" fill="#62B6CC"/>
<path d="M135.851 193.741H106.438C105.284 193.741 104.177 193.283 103.361 192.467C102.545 191.652 102.086 190.545 102.086 189.392C102.086 188.238 102.545 187.132 103.361 186.316C104.177 185.501 105.284 185.042 106.438 185.042H135.851C137.005 185.042 138.112 185.501 138.928 186.316C139.745 187.132 140.203 188.238 140.203 189.392C140.203 190.545 139.745 191.652 138.928 192.467C138.112 193.283 137.005 193.741 135.851 193.741Z" fill="#62B6CC"/>
<path d="M331.449 295H0.551495C0.405229 295 0.264963 294.942 0.161537 294.838C0.0581118 294.735 0 294.595 0 294.449C0 294.303 0.0581118 294.162 0.161537 294.059C0.264963 293.956 0.405229 293.898 0.551495 293.898H331.449C331.595 293.898 331.735 293.956 331.838 294.059C331.942 294.162 332 294.303 332 294.449C332 294.595 331.942 294.735 331.838 294.838C331.735 294.942 331.595 295 331.449 295Z" fill="#CACACA"/>
</g>
<defs>
<clipPath id="clip0_51_4026">
<rect width="332" height="295" fill="white"/>
</clipPath>
</defs>
</svg>
