<svg width="337" height="331" viewBox="0 0 337 331" fill="none" xmlns="http://www.w3.org/2000/svg">
<g clip-path="url(#clip0_37_960)">
<path d="M245.449 61.5009C245.408 74.3507 244.537 87.1844 242.842 99.9223C242.783 100.37 242.718 100.817 242.659 101.264H122.16C121.804 100.822 121.453 100.375 121.113 99.9223C119.98 98.424 118.917 96.8826 117.94 95.2874C113.245 87.602 111.065 78.5855 113.164 72.3445L113.202 72.2475C113.655 70.8809 114.374 69.6171 115.317 68.5288C120.153 63.0315 129.996 63.8885 138.949 68.2539C130.892 59.5446 124.454 48.5339 123.914 38.6767C123.385 29.0619 128.383 22.1634 133.812 16.2943C133.99 16.1003 134.168 15.9116 134.346 15.723C134.433 15.626 134.524 15.5344 134.61 15.4374C138.847 10.9641 143.79 6.55019 150.984 7.04065C158.874 7.5796 167.655 14.1278 173.829 21.7808C180.003 29.4284 184.126 38.1323 188.303 46.6261C192.485 55.1145 197.008 63.8184 203.684 71.0564C194.633 59.7548 187.315 46.8794 184.568 34.3328C181.821 21.7862 184.11 9.70843 192.086 3.7477C194.508 1.99345 197.315 0.843979 200.273 0.39547C200.618 0.336186 200.969 0.287682 201.325 0.244566C208.735 -0.639276 217.602 1.87218 225.168 7.95147C233.501 14.6452 239.307 24.6048 242.222 34.0741C245.136 43.5433 245.492 52.673 245.449 61.5009Z" fill="#F2F2F2"/>
<path d="M166.835 101.264H164.531C163.797 100.811 163.059 100.364 162.318 99.9222C161.859 99.6365 161.395 99.3617 160.931 99.0814C153.262 94.4627 145.547 90.0344 137.784 85.7965C130.029 81.555 122.236 77.5111 114.405 73.6648C114.198 73.576 114.028 73.4173 113.926 73.2165C113.823 73.0156 113.794 72.7853 113.844 72.5654C113.852 72.5366 113.865 72.5093 113.882 72.4845C113.99 72.2797 114.233 72.1935 114.589 72.366C115.55 72.8402 116.516 73.3145 117.476 73.7996C125.329 77.7123 133.149 81.8226 140.936 86.1306C148.718 90.4368 156.457 94.9352 164.153 99.6258C164.315 99.7228 164.477 99.8252 164.638 99.9222C165.372 100.37 166.101 100.817 166.835 101.264Z" fill="white"/>
<path d="M196.544 101.264H195.12C194.796 100.817 194.477 100.37 194.153 99.9222C186.544 89.3912 178.937 78.8603 171.331 68.3293C158.875 51.0885 146.423 33.8476 133.974 16.6068C133.901 16.5141 133.846 16.4079 133.812 16.2942C133.705 15.9116 133.985 15.6852 134.347 15.723C134.499 15.7438 134.645 15.7969 134.776 15.8787C134.906 15.9605 135.017 16.0691 135.102 16.1972C142.086 25.8659 149.067 35.5309 156.047 45.1924C168.438 62.347 180.827 79.4998 193.215 96.6508C194.003 97.7395 194.79 98.8335 195.578 99.9222C195.902 100.37 196.226 100.817 196.544 101.264Z" fill="white"/>
<path d="M228.239 92.8243C228.18 95.2226 228.034 97.5832 227.84 99.9222C227.802 100.37 227.764 100.817 227.727 101.264H226.232C226.275 100.817 226.318 100.37 226.356 99.9222C226.653 96.5431 226.858 93.1262 226.869 89.6176C226.854 79.8906 225.85 70.1902 223.873 60.6656C221.771 50.41 218.779 40.3567 214.931 30.6194C210.892 20.3496 206.035 10.4192 200.408 0.923589C200.303 0.7689 200.255 0.581856 200.274 0.395426C200.333 -0.03034 200.899 -0.159686 201.326 0.244522C201.41 0.323825 201.483 0.414533 201.542 0.513994C202.238 1.69428 202.921 2.87816 203.592 4.06563C209.014 13.6153 213.665 23.5814 217.5 33.8692C221.153 43.6396 223.946 53.7092 225.849 63.9639C227.63 73.4773 228.431 83.1479 228.239 92.8243Z" fill="white"/>
<path d="M332.289 99.9222H4.70582C3.45808 99.9234 2.26178 100.419 1.37951 101.3C0.497238 102.181 0.00109601 103.376 0 104.622V326.3C0.00109459 327.546 0.497238 328.741 1.37951 329.622C2.26178 330.503 3.45808 330.999 4.70582 331H332.289C332.969 331 333.641 330.853 334.259 330.568C334.877 330.283 335.425 329.868 335.867 329.351C335.904 329.31 335.939 329.267 335.969 329.221C336.25 328.878 336.478 328.495 336.644 328.084C336.881 327.519 337.002 326.913 337 326.3V104.622C336.999 103.375 336.502 102.18 335.618 101.298C334.735 100.417 333.537 99.9222 332.289 99.9222ZM335.656 326.3C335.657 326.956 335.463 327.597 335.1 328.144C334.778 328.624 334.34 329.017 333.827 329.286C333.351 329.531 332.824 329.659 332.289 329.658H4.70582C3.81445 329.657 2.95988 329.303 2.32959 328.673C1.69929 328.044 1.34472 327.191 1.34364 326.3V104.622C1.34471 103.732 1.69929 102.878 2.32959 102.249C2.95989 101.619 3.81444 101.265 4.70582 101.264H332.289C333.181 101.264 334.037 101.618 334.668 102.247C335.3 102.877 335.655 103.731 335.656 104.622V326.3Z" fill="#3F3D56"/>
<path d="M336.325 118.758H0.669922V120.101H336.325V118.758Z" fill="#3F3D56"/>
<path d="M12.1062 114.029C14.3352 114.029 16.1422 112.224 16.1422 109.998C16.1422 107.772 14.3352 105.968 12.1062 105.968C9.87726 105.968 8.07031 107.772 8.07031 109.998C8.07031 112.224 9.87726 114.029 12.1062 114.029Z" fill="#3F3D56"/>
<path d="M23.7098 114.029C25.9387 114.029 27.7457 112.224 27.7457 109.998C27.7457 107.772 25.9387 105.968 23.7098 105.968C21.4808 105.968 19.6738 107.772 19.6738 109.998C19.6738 112.224 21.4808 114.029 23.7098 114.029Z" fill="#3F3D56"/>
<path d="M35.3133 114.029C37.5423 114.029 39.3492 112.224 39.3492 109.998C39.3492 107.772 37.5423 105.968 35.3133 105.968C33.0843 105.968 31.2773 107.772 31.2773 109.998C31.2773 112.224 33.0843 114.029 35.3133 114.029Z" fill="#3F3D56"/>
<path d="M149.478 232.971C145.442 230.347 143.434 224.249 144.423 218.672C145.412 213.095 149.137 208.292 153.602 206.22C155.774 205.243 158.155 204.819 160.531 204.988C162.908 205.157 165.205 205.912 167.217 207.187C171.311 209.687 177.102 211.057 179.046 216.059C180.541 219.903 178.645 227.71 176.634 231.444C174.896 234.671 171.593 236.147 168.49 236.789C165.057 237.488 161.513 237.443 158.099 236.656C154.685 235.869 151.48 234.359 148.701 232.229L149.478 232.971Z" fill="#2F2E41"/>
<path d="M147.373 262.592L144.145 268.148L143.719 268.881L143.098 269.959H133.584L134.226 268.881L135.888 266.084L139.763 259.552L144.151 261.304L147.373 262.592Z" fill="#FFB8B8"/>
<path d="M132.872 269.959L131.134 268.881L130.918 268.746L141.825 248.897C142.294 248.038 142.929 247.28 143.693 246.668C144.457 246.055 145.336 245.601 146.277 245.329C147.466 244.976 148.725 244.929 149.936 245.195C150.643 245.344 151.323 245.598 151.954 245.949C152.214 246.091 152.465 246.25 152.705 246.423C153.627 247.069 154.385 247.922 154.917 248.913C155.551 250.074 155.864 251.382 155.824 252.703C155.785 254.024 155.393 255.311 154.691 256.432L150.487 263.141L146.892 268.881L146.218 269.959H132.872Z" fill="#2F2E41"/>
<path d="M160.894 240.016C168.214 240.016 174.149 234.09 174.149 226.779C174.149 219.469 168.214 213.542 160.894 213.542C153.573 213.542 147.639 219.469 147.639 226.779C147.639 234.09 153.573 240.016 160.894 240.016Z" fill="#FFB8B8"/>
<path d="M174.199 269.959H144.404L144.539 269.576C144.463 269.345 144.393 269.113 144.328 268.881C144.258 268.639 144.199 268.391 144.145 268.148C143.661 265.892 143.663 263.559 144.15 261.304C145.796 253.23 152.364 246.671 152.364 246.671C152.478 246.585 152.591 246.504 152.704 246.423C153.681 245.709 154.741 245.115 155.861 244.656C160.74 242.635 165.856 243.448 169.294 244.494C170.491 244.856 171.661 245.3 172.796 245.825C173.196 246.014 173.412 246.132 173.412 246.132L173.752 256.486L174.162 268.881L174.199 269.959Z" fill="#62B6CC"/>
<path d="M187.982 268.881L185.705 257.316L183.406 245.653C183.31 245.171 183.07 244.73 182.719 244.386C182.367 244.043 181.92 243.814 181.436 243.729L176.622 242.899L172.143 242.128C171.711 242.05 171.265 242.092 170.855 242.249C170.445 242.406 170.086 242.671 169.817 243.017C169.48 243.436 169.295 243.957 169.293 244.494C169.293 244.826 169.361 245.154 169.493 245.459C171.83 250.902 171.873 259.52 171.279 268.881C171.252 269.237 171.231 269.598 171.203 269.959H188.198L187.982 268.881Z" fill="#2F2E41"/>
<path d="M155.861 244.656C155.762 244.264 155.567 243.902 155.293 243.604C155.019 243.306 154.676 243.08 154.293 242.948C153.91 242.815 153.5 242.78 153.101 242.845C152.701 242.909 152.323 243.072 152.002 243.319L149.935 245.195L141.473 252.891C141.209 253.127 141.003 253.42 140.869 253.748C139.913 256.027 138.052 260.528 135.887 266.084C135.537 266.99 135.175 267.922 134.803 268.881C134.673 269.237 134.533 269.598 134.393 269.959H148.338C148.451 269.598 148.565 269.237 148.678 268.881C149.298 266.925 149.903 265.006 150.486 263.142C152.191 257.725 153.729 252.805 154.917 248.913C155.246 247.836 155.546 246.84 155.818 245.928C155.945 245.515 155.959 245.076 155.861 244.656Z" fill="#2F2E41"/>
<path d="M191.113 269.959H192.014L191.89 269.657L191.561 268.881L186.483 256.847L185.705 257.316L179.467 261.083L182.667 268.881L183.11 269.959H188.199H191.113Z" fill="#FFB8B8"/>
<path d="M185.965 247.302C185.278 245.506 183.922 244.045 182.181 243.224C180.44 242.403 178.449 242.287 176.623 242.899C176.39 242.976 176.161 243.066 175.938 243.168C174.659 243.738 173.57 244.659 172.797 245.825C172.482 246.291 172.223 246.792 172.025 247.318C171.675 248.232 171.51 249.205 171.538 250.183C171.567 251.161 171.789 252.123 172.193 253.015L173.752 256.486L179.333 268.881L179.818 269.959H191.114L191.891 269.657L193.909 268.881L194.19 268.773L185.965 247.302Z" fill="#2F2E41"/>
<path d="M171.304 211.576C171.766 211.715 172.261 211.697 172.712 211.526C173.163 211.355 173.545 211.041 173.799 210.631C174.039 210.213 174.181 209.747 174.212 209.266C174.244 208.786 174.165 208.304 173.981 207.859C173.605 206.97 173.012 206.189 172.257 205.588C171.399 204.812 170.355 204.272 169.225 204.02C168.661 203.899 168.078 203.9 167.514 204.024C166.95 204.148 166.42 204.391 165.959 204.737C165.506 205.095 165.17 205.58 164.995 206.129C164.819 206.678 164.812 207.268 164.973 207.821C165.317 208.815 166.246 209.481 167.175 209.977C169.017 210.959 171.048 211.536 173.132 211.668L171.304 211.576Z" fill="#2F2E41"/>
<path d="M173.882 226.384C171.751 226.677 172.024 225.594 171.171 223.622C170.317 221.65 169.175 219.309 167.033 219.11C165.278 218.946 163.832 220.347 162.41 221.388C159.875 223.242 156.459 224.15 153.521 223.038C150.584 221.925 148.542 218.428 149.657 215.494C150.004 214.684 150.514 213.954 151.155 213.349C151.796 212.744 152.555 212.276 153.384 211.976C155.048 211.385 156.815 211.14 158.577 211.255C162.496 211.38 166.34 212.363 169.837 214.134C172.25 215.358 174.6 217.11 175.516 219.655C176.431 222.199 177.034 225.774 174.416 226.462L173.882 226.384Z" fill="#2F2E41"/>
<path d="M170.214 204.578C169.161 202.747 170.03 200.235 171.754 199.012C173.477 197.788 175.789 197.668 177.846 198.159C179.88 198.671 181.743 199.707 183.249 201.165C184.755 202.623 185.851 204.451 186.427 206.465C187.3 209.667 186.781 213.106 187.52 216.341C187.914 218.066 188.657 219.692 189.704 221.119C190.751 222.546 192.079 223.744 193.607 224.638C195.135 225.533 196.83 226.106 198.589 226.322C200.347 226.538 202.13 226.393 203.83 225.894C206.044 225.245 208.293 223.667 208.511 221.373C208.74 224.007 208.139 226.647 206.791 228.923C205.443 231.198 203.417 232.996 200.995 234.064C198.143 235.253 194.961 235.33 191.872 235.251C189.858 235.199 187.799 235.078 185.942 234.3C184.657 233.715 183.501 232.88 182.544 231.843C181.586 230.806 180.845 229.589 180.365 228.262C179.419 225.596 179.164 222.735 179.623 219.943C179.927 217.772 180.531 215.645 180.7 213.459C180.87 211.273 180.549 208.94 179.199 207.21C177.85 205.481 175.273 204.598 173.355 205.664C172.584 206.092 171.962 206.792 171.124 207.068C170.286 207.344 169.099 206.859 169.175 205.981L170.214 204.578Z" fill="#2F2E41"/>
<path d="M260.666 269.959L260.769 268.881L263.812 237.256C264.81 236.476 265.882 235.795 267.013 235.224C273.278 232.071 279.323 233.58 282.593 234.885C283.46 235.223 284.297 235.633 285.097 236.108L286.878 268.881L286.938 269.959H260.666Z" fill="#62B6CC"/>
<path d="M274.921 228.839C282.242 228.839 288.176 222.913 288.176 215.602C288.176 208.292 282.242 202.365 274.921 202.365C267.6 202.365 261.666 208.292 261.666 215.602C261.666 222.913 267.6 228.839 274.921 228.839Z" fill="#FFB8B8"/>
<path d="M285.676 223.673C286.662 222.636 287.316 221.33 287.555 219.921C287.795 218.512 287.61 217.063 287.023 215.759C286.436 214.455 285.474 213.356 284.259 212.599C283.044 211.843 281.632 211.465 280.201 211.513C278.368 211.574 276.641 212.323 274.892 212.873C272.241 213.773 269.413 214.028 266.643 213.614C263.857 213.182 261.343 211.7 259.618 209.472C257.978 207.221 257.467 204.099 258.626 201.567C259.963 198.645 263.087 197.034 266.027 195.725C267.212 195.133 268.478 194.717 269.784 194.493C270.438 194.384 271.108 194.412 271.751 194.573C272.394 194.735 272.997 195.028 273.522 195.434C274.348 196.143 274.832 197.209 275.731 197.824C276.742 198.516 278.057 198.498 279.277 198.62C282.025 198.895 284.625 199.999 286.73 201.785C288.835 203.571 290.345 205.955 291.06 208.619C291.776 211.283 291.662 214.102 290.733 216.7C289.805 219.298 288.107 221.553 285.865 223.163L285.676 223.673Z" fill="#2F2E41"/>
<path d="M268.988 240.7L267.013 235.224L266.89 234.883C266.831 234.721 266.737 234.575 266.613 234.455C266.49 234.335 266.341 234.244 266.177 234.191C266.013 234.137 265.84 234.121 265.669 234.144C265.498 234.167 265.335 234.229 265.192 234.324L262.949 235.817C262.949 235.817 248.567 235.817 247.412 244.435C247.396 244.57 247.374 244.72 247.358 244.882C247.357 244.889 247.356 244.897 247.353 244.904C247.207 245.47 244.493 255.947 242.161 268.881C242.096 269.237 242.032 269.598 241.967 269.959H273.219C274.236 256.966 273.667 244.885 268.988 240.7Z" fill="#2F2E41"/>
<path d="M306.269 268.881C304.564 255.613 302.125 244.882 302.125 244.882C302.103 244.72 302.082 244.57 302.065 244.435C300.916 235.817 286.533 235.817 286.533 235.817L284.292 234.325C284.149 234.23 283.986 234.168 283.815 234.145C283.644 234.122 283.47 234.138 283.306 234.192C283.143 234.246 282.994 234.336 282.87 234.456C282.747 234.576 282.652 234.723 282.594 234.885L280.495 240.7C275.815 244.885 275.246 256.966 276.263 269.959L306.404 269.959C306.361 269.598 306.313 269.237 306.269 268.881Z" fill="#2F2E41"/>
<path d="M53.1184 238.668L49.9127 268.881L49.7994 269.959H41.127C41.2295 269.609 41.332 269.248 41.44 268.881C43.901 260.452 47.2523 248.148 46.8905 244.887C46.324 239.8 50.2906 238.102 50.2906 238.102L50.5389 238.151L53.1184 238.668Z" fill="#62B6CC"/>
<path d="M67.1046 229.342C74.4251 229.342 80.3596 223.416 80.3596 216.105C80.3596 208.795 74.4251 202.868 67.1046 202.868C59.7841 202.868 53.8496 208.795 53.8496 216.105C53.8496 223.416 59.7841 229.342 67.1046 229.342Z" fill="#A0616A"/>
<path d="M84.2629 263.546C83.5945 264.776 83.0469 266.069 82.6278 267.405C82.4713 267.879 82.3203 268.375 82.1798 268.881C82.0773 269.232 81.9856 269.593 81.8939 269.959H46.9336C46.9823 269.603 47.0253 269.242 47.074 268.881C48.8604 254.788 50.3066 240.484 50.5387 238.151C50.5603 237.93 50.5711 237.816 50.5711 237.816C71.5212 226.79 86.8103 241.212 86.8103 241.212C86.8103 241.212 86.8319 241.314 86.8643 241.514C87.199 243.529 88.9042 255.3 84.2629 263.546Z" fill="#62B6CC"/>
<path d="M82.6282 267.405L80.2969 262.414L80.8634 242.624L86.8647 241.514L87.0752 241.476C90.1771 243.277 92.5775 246.073 93.8857 249.409C95.0515 252.319 97.2695 261.072 99.1423 268.881C99.2287 269.242 99.3149 269.603 99.4013 269.959H83.8208L83.3188 268.881L82.6282 267.405Z" fill="#62B6CC"/>
<path d="M103.951 181.033H27.3065C25.6625 181.035 24.0864 181.688 22.9239 182.849C21.7614 184.01 21.1075 185.584 21.1055 187.226V263.767C21.1075 265.408 21.7614 266.982 22.9239 268.143C24.0864 269.304 25.6625 269.957 27.3065 269.959H103.951C105.595 269.958 107.172 269.305 108.335 268.144C109.497 266.983 110.151 265.409 110.152 263.767V187.226C110.151 185.584 109.497 184.009 108.335 182.848C107.172 181.687 105.595 181.034 103.951 181.033ZM109.073 263.767C109.071 265.123 108.531 266.423 107.571 267.382C106.611 268.341 105.309 268.88 103.951 268.881H27.3065C25.9488 268.879 24.6473 268.34 23.6872 267.381C22.7272 266.422 22.1869 265.123 22.1848 263.767V187.226C22.1869 185.87 22.7272 184.57 23.6872 183.612C24.6473 182.653 25.9488 182.113 27.3065 182.111H103.951C105.309 182.112 106.611 182.652 107.571 183.611C108.531 184.569 109.071 185.87 109.073 187.226V263.767ZM49.9133 268.881L49.7999 269.959H81.8945C81.9862 269.593 82.0779 269.232 82.1804 268.881H49.9133Z" fill="#3F3D56"/>
<path d="M206.818 181.033H130.174C128.53 181.035 126.954 181.688 125.791 182.849C124.629 184.01 123.975 185.584 123.973 187.226V263.767C123.975 265.408 124.629 266.982 125.791 268.143C126.954 269.304 128.53 269.957 130.174 269.959H206.818C208.463 269.958 210.039 269.305 211.202 268.144C212.364 266.983 213.018 265.409 213.019 263.767V187.226C213.018 185.584 212.364 184.009 211.202 182.848C210.039 181.687 208.463 181.034 206.818 181.033ZM211.94 263.767C211.939 265.123 211.399 266.423 210.438 267.382C209.478 268.341 208.176 268.88 206.818 268.881H130.174C128.816 268.879 127.514 268.34 126.554 267.381C125.594 266.422 125.054 265.123 125.052 263.767V187.226C125.054 185.87 125.594 184.57 126.554 183.612C127.514 182.653 128.816 182.113 130.174 182.111H206.818C208.176 182.112 209.478 182.652 210.438 183.611C211.399 184.569 211.939 185.87 211.94 187.226V263.767ZM144.329 268.881C144.394 269.113 144.464 269.345 144.54 269.576L144.405 269.959H171.205C171.232 269.598 171.254 269.237 171.281 268.881H144.329Z" fill="#3F3D56"/>
<path d="M309.691 181.033H233.047C231.402 181.034 229.826 181.687 228.663 182.848C227.5 184.009 226.847 185.584 226.846 187.226V263.767C226.847 265.409 227.5 266.983 228.663 268.144C229.826 269.305 231.402 269.958 233.047 269.959H309.691C311.335 269.957 312.911 269.304 314.074 268.143C315.236 266.982 315.89 265.408 315.892 263.767V187.226C315.89 185.584 315.236 184.01 314.074 182.849C312.911 181.688 311.335 181.035 309.691 181.033ZM314.813 263.767C314.811 265.122 314.271 266.422 313.311 267.381C312.35 268.34 311.049 268.879 309.691 268.881H233.047C231.689 268.88 230.387 268.341 229.426 267.382C228.466 266.423 227.926 265.123 227.925 263.767V187.226C227.926 185.87 228.466 184.569 229.426 183.61C230.387 182.652 231.689 182.112 233.047 182.111H309.691C311.049 182.113 312.35 182.653 313.311 183.612C314.271 184.57 314.811 185.87 314.813 187.226V263.767ZM273.301 268.881C273.274 269.237 273.247 269.598 273.22 269.959H296.475C296.518 269.603 296.566 269.242 296.609 268.881H273.301Z" fill="#3F3D56"/>
<path d="M257.545 301.218H79.4522C78.3071 301.218 77.209 300.764 76.3993 299.955C75.5896 299.147 75.1348 298.05 75.1348 296.906C75.1348 295.763 75.5896 294.666 76.3993 293.858C77.209 293.049 78.3071 292.595 79.4522 292.595H257.545C258.69 292.595 259.788 293.049 260.598 293.858C261.407 294.666 261.862 295.763 261.862 296.906C261.862 298.05 261.407 299.147 260.598 299.955C259.788 300.764 258.69 301.218 257.545 301.218Z" fill="#CCCCCC"/>
<path d="M207.625 158.398H129.372C128.227 158.398 127.129 157.944 126.319 157.135C125.51 156.326 125.055 155.23 125.055 154.086C125.055 152.943 125.51 151.846 126.319 151.037C127.129 150.229 128.227 149.775 129.372 149.775H207.625C208.77 149.775 209.868 150.229 210.678 151.037C211.488 151.846 211.942 152.943 211.942 154.086C211.942 155.23 211.488 156.326 210.678 157.135C209.868 157.944 208.77 158.398 207.625 158.398Z" fill="#62B6CC"/>
<path d="M73.4439 227.638C73.8928 228.08 74.4862 228.346 75.1153 228.386C75.7444 228.426 76.367 228.238 76.8686 227.857C79.9926 225.545 82.7351 222.666 84.3581 219.155C86.2179 215.132 86.4253 210.195 84.1831 206.371C82.2875 203.139 78.9404 201.053 75.6045 199.34C74.3092 198.61 72.914 198.073 71.4631 197.746C69.9967 197.423 68.4621 197.67 67.1718 198.437C66.5406 198.833 66.0433 199.409 65.7448 200.09C65.4463 200.772 65.3605 201.528 65.4985 202.259C63.8962 200.433 61.8438 199.057 59.5449 198.268C58.0973 197.702 56.5121 197.587 54.998 197.939C52.881 198.538 51.3356 200.417 50.4903 202.445C49.8067 203.989 49.5706 205.693 49.809 207.363C49.9344 208.195 50.2332 208.99 50.686 209.699C51.1388 210.408 51.7355 211.014 52.4375 211.478C54.1878 212.559 56.4207 212.481 58.4307 212.039C60.4407 211.598 62.3864 210.829 64.4353 210.635C66.4843 210.441 68.7659 210.951 70.0128 212.586C70.891 213.737 71.1165 215.242 71.3136 216.676L72.3388 224.135C72.4227 225.214 72.6987 226.269 73.1537 227.251C73.2325 227.392 73.3302 227.523 73.4439 227.638Z" fill="#2F2E41"/>
</g>
<defs>
<clipPath id="clip0_37_960">
<rect width="337" height="331" fill="white"/>
</clipPath>
</defs>
</svg>
