<svg width="152" height="180" viewBox="0 0 152 180" fill="none" xmlns="http://www.w3.org/2000/svg">
<path d="M112.248 109.755C112.248 127.813 96.0661 142.94 76.1318 142.94C56.1976 142.94 40.0156 127.813 40.0156 109.755C40.0156 91.697 56.0803 77.1567 76.1318 77.1567C96.1834 77.1567 112.248 91.8143 112.248 109.755Z" fill="#62B6CC"/>
<path d="M1.32037 54.8777L3.19653 54.9949C3.54831 54.9949 3.78284 55.2295 3.66558 55.5812L3.19653 61.2097C3.19653 61.5615 3.43106 61.796 3.66558 61.796L7.18339 62.0306C7.53517 62.0306 7.76969 61.796 7.76969 61.5615L8.12147 57.4574C8.12147 57.1056 8.35599 56.8711 8.70777 56.9884L10.4667 57.1056C10.8185 57.1056 11.053 57.3401 10.9357 57.6919L10.7012 61.9133C10.7012 62.2651 10.9357 62.4996 11.1702 62.4996L17.7368 63.0859C18.0886 63.0859 18.3231 63.3204 18.2059 63.6722L18.0886 65.7829C18.0886 66.1347 17.8541 66.3692 17.5023 66.2519L0.499544 64.8448C0.147763 64.8448 -0.0867575 64.6103 0.0305029 64.2585L0.734066 55.3467C0.734066 54.9949 1.08585 54.7604 1.32037 54.8777Z" fill="#404040"/>
<path d="M14.805 28.8462L28.0554 39.5169C28.2899 39.7514 28.2899 40.1032 28.1727 40.3377L26.7655 41.9794C26.531 42.2139 26.1792 42.2139 25.9447 42.0966L12.6943 31.4259C12.4598 31.1914 12.4598 30.8396 12.577 30.6051L13.9841 28.9635C14.2187 28.729 14.5705 28.6117 14.805 28.8462Z" fill="#404040"/>
<path d="M53.3845 22.2792L51.2738 23.3345C51.1566 23.4518 50.922 23.4518 50.6875 23.3345L40.4858 16.7679C40.0168 16.4161 39.4305 17.0024 39.665 17.4715L44.1209 26.266C44.2382 26.5005 44.1209 26.8523 43.8864 26.9696L41.893 27.9077C41.6585 28.0249 41.3067 27.9077 41.1894 27.6731L33.5675 12.4293C33.4502 12.1948 33.5675 11.843 33.802 11.7257L35.9127 10.6704C36.03 10.5531 36.2645 10.5531 36.499 10.6704L46.7007 17.237C47.1697 17.5887 47.756 17.0024 47.5215 16.5334L43.0656 7.62161C42.9483 7.38709 43.0656 7.03531 43.3001 6.91805L45.2935 5.97996C45.528 5.8627 45.8798 5.97996 45.9971 6.21448L53.619 21.4583C53.7363 21.8101 53.619 22.1619 53.3845 22.2792Z" fill="#404040"/>
<path d="M81.1746 1.407C82.4645 2.22783 83.4026 3.28317 84.1061 4.6903C84.8097 6.09742 85.0442 7.73907 85.0442 9.49797C85.0442 11.2569 84.5752 12.8985 83.8716 14.1884C83.168 15.4783 82.1127 16.5336 80.8228 17.2372C79.533 17.9407 78.0086 18.2925 76.2497 18.2925L71.0902 18.1752C70.7384 18.1752 70.5039 17.9407 70.5039 17.5889L70.8557 0.58618C70.8557 0.234399 71.0902 -0.00012207 71.442 -0.00012207L76.6015 0.117139C78.3604 0.234399 79.8847 0.70344 81.1746 1.407ZM80.2365 13.8366C81.1746 12.7813 81.6437 11.3741 81.7609 9.49797C81.7609 7.6218 81.4091 6.09742 80.471 5.04208C79.533 3.98673 78.2431 3.40043 76.4842 3.40043H74.7253C74.3735 3.40043 74.139 3.63495 74.139 3.98673L73.9045 14.892C73.9045 15.2437 74.139 15.4783 74.4908 15.4783H76.2497C78.0086 15.361 79.2984 14.7747 80.2365 13.8366Z" fill="#404040"/>
<path d="M139.687 30.9568L127.727 43.0347C127.492 43.2692 127.14 43.2692 126.906 43.0347L125.382 41.5103C125.147 41.2758 125.147 40.924 125.382 40.6895L131.127 34.9437C131.596 34.4746 131.01 33.7711 130.541 34.0056L122.216 37.7579C121.981 37.8752 121.746 37.7579 121.629 37.6407L120.457 36.4681C120.339 36.3508 120.222 35.999 120.339 35.8818L124.092 27.5563C124.326 26.97 123.623 26.5009 123.154 26.97L117.408 32.7157C117.173 32.9503 116.822 32.9503 116.587 32.7157L115.063 31.1914C114.828 30.9568 114.828 30.6051 115.063 30.3705L127.14 18.2927C127.375 18.0582 127.727 18.0582 127.961 18.2927L129.955 20.2861C130.072 20.4034 130.189 20.6379 130.072 20.8724L124.912 32.4812C124.678 32.9503 125.147 33.4193 125.616 33.1848L137.225 28.0253C137.459 27.9081 137.694 28.0253 137.811 28.1426L139.805 30.136C139.922 30.3705 139.922 30.7223 139.687 30.9568Z" fill="#404040"/>
<path d="M148.482 60.7406L145.081 60.8578C144.73 60.8578 144.495 61.0924 144.495 61.4442L144.73 65.7828C144.73 66.1346 144.495 66.3691 144.143 66.3691L142.384 66.4864C142.033 66.4864 141.798 66.2518 141.798 65.9001L141.564 61.5614C141.564 61.2096 141.329 60.9751 140.977 60.9751L137.225 61.0924C136.873 61.0924 136.639 61.3269 136.639 61.6787L136.873 66.7209C136.873 67.0727 136.639 67.3072 136.287 67.3072L134.411 67.4244C134.059 67.4244 133.824 67.1899 133.824 66.8381L133.473 58.5126C133.473 58.1609 133.707 57.9263 134.059 57.9263L151.062 57.2228C151.413 57.2228 151.648 57.4573 151.648 57.8091L152 66.1346C152 66.4864 151.765 66.7209 151.414 66.7209L149.537 66.8381C149.186 66.8381 148.951 66.6036 148.951 66.2518L148.717 61.2096C148.951 60.9751 148.717 60.7406 148.482 60.7406Z" fill="#404040"/>
<path d="M76.1319 119.605C75.3111 119.605 74.6075 119.254 74.0212 118.667L22.4266 67.0727C20.6677 65.3138 20.6677 62.4996 22.4266 60.7407C36.7324 46.4349 55.8458 38.4612 76.1319 38.4612C96.4179 38.4612 115.531 46.3176 129.837 60.7407C131.596 62.4996 131.596 65.3138 129.837 67.0727L78.2426 118.667C77.6563 119.371 76.9527 119.605 76.1319 119.605ZM76.1319 109.052L121.16 64.024C108.848 53.0015 92.9001 46.9039 76.1319 46.9039C59.4809 46.9039 43.5335 53.0015 31.1039 64.024L76.1319 109.052Z" fill="#404040"/>
<path d="M87.5078 158.184C87.156 158.184 86.687 158.067 86.3352 157.95C85.7489 157.715 85.2798 157.481 84.9281 157.246C84.8108 157.129 84.6935 157.129 84.5763 157.012C83.2864 156.308 81.8793 155.605 80.5894 154.901C79.4168 154.197 78.127 153.611 76.9543 152.908C76.7198 152.79 76.368 152.673 76.1335 152.673C75.899 152.673 75.6645 152.79 75.3127 152.908C72.3812 154.432 69.4497 156.074 66.6354 157.598C66.0491 157.95 65.3456 158.067 64.642 158.067C63.5867 158.067 62.6486 157.715 61.945 156.894C60.7724 155.722 60.5379 153.963 61.2415 152.438C63.0004 148.921 64.7593 145.403 66.5182 141.885L72.4985 129.924C73.202 128.517 74.4919 127.697 75.899 127.697C76.7198 127.697 77.5407 127.931 78.2442 128.517C78.8305 128.986 79.1823 129.573 79.4168 129.924C81.0585 133.208 82.7001 136.491 84.3418 139.774L86.687 144.582C87.9768 147.279 89.384 149.859 90.6738 152.556C91.3774 154.08 91.2601 155.605 90.2048 156.894C89.7357 157.715 88.6804 158.184 87.5078 158.184Z" fill="#404040"/>
<path d="M104.392 148.686C102.867 148.686 101.343 147.983 100.405 146.575C98.8806 144.347 99.4669 141.416 101.695 139.892C112.483 132.621 118.698 121.599 118.698 109.521C118.698 88.5315 99.5841 71.5287 76.1321 71.5287C52.68 71.5287 33.5665 88.5315 33.5665 109.521C33.5665 121.599 39.7813 132.621 50.5693 139.892C52.7972 141.416 53.3835 144.347 51.8592 146.575C50.3348 148.803 47.4033 149.39 45.1753 147.865C38.726 143.527 33.4493 137.898 29.8142 131.449C26.0619 124.765 23.9512 117.143 23.9512 109.521C23.9512 96.7397 29.4624 84.6619 39.4295 75.6328C49.1622 66.9556 62.2953 62.0306 76.1321 62.0306C89.9688 62.0306 102.985 66.9556 112.835 75.7501C122.802 84.7792 128.313 96.7397 128.313 109.638C128.313 117.26 126.32 124.765 122.45 131.566C118.815 138.015 113.538 143.644 107.089 147.983C106.268 148.452 105.33 148.686 104.392 148.686Z" fill="#404040"/>
<path d="M92.5486 132.152C91.6105 132.152 90.7896 131.683 90.2033 130.98C89.3825 129.69 89.7343 127.931 90.9069 127.11C97.1217 122.889 100.757 116.557 100.757 109.521C100.757 97.4433 89.7343 87.4762 76.1321 87.4762C62.5299 87.4762 51.5074 97.3261 51.5074 109.521C51.5074 116.44 55.0252 122.889 61.3573 127.11C62.6471 127.931 62.9989 129.69 62.0608 130.98C61.24 132.27 59.4811 132.621 58.1912 131.683C54.4389 129.221 51.3901 125.938 49.2795 122.185C47.0515 118.316 45.8789 113.977 45.8789 109.521C45.8789 102.134 49.0449 95.2154 54.7907 89.9387C60.5365 84.7792 68.0411 81.965 76.0148 81.965C83.9885 81.965 91.6105 84.7792 97.239 89.9387C102.985 95.0981 106.151 102.134 106.151 109.521C106.151 113.977 104.978 118.316 102.75 122.185C100.64 125.938 97.5907 129.221 93.8384 131.683C93.6039 132.035 93.0176 132.152 92.5486 132.152Z" fill="#404040"/>
<path d="M5.77672 135.201C4.83864 135.553 3.90055 135.436 2.96247 135.201C2.02439 134.85 1.43808 134.146 1.0863 133.208C0.969042 132.739 0.734521 132.153 0.5 131.332C1.55534 131.097 2.72795 130.746 4.01781 130.277C5.30768 129.925 6.36302 129.573 7.18385 129.221L7.41836 130.042C7.41836 130.159 7.53563 130.394 7.65289 130.628C7.77015 130.863 7.77014 131.097 7.88741 131.097C8.23919 132.27 8.23919 133.091 7.77015 133.794C7.30111 134.381 6.59754 134.967 5.77672 135.201ZM5.19042 134.029C5.89398 133.794 6.36302 133.443 6.7148 132.974C7.06658 132.504 7.06658 131.918 6.83206 131.215C6.83206 131.097 6.7148 130.863 6.59754 130.628C5.89398 130.863 5.19042 131.097 4.48685 131.332C3.66603 131.566 2.84521 131.918 2.02438 132.153C2.02438 132.387 2.14165 132.622 2.14165 132.739C2.37617 133.443 2.72795 133.794 3.31425 134.029C3.90055 134.146 4.48685 134.146 5.19042 134.029Z" fill="#404040"/>
<path d="M6.59614 144.7L5.89258 143.527C6.83066 142.941 7.886 142.354 9.05861 141.651C10.114 140.947 11.052 140.361 11.8729 139.892L12.5764 141.065C11.7556 141.534 10.8175 142.12 9.76217 142.706C8.58957 143.527 7.53422 144.113 6.59614 144.7Z" fill="#404040"/>
<path d="M15.0413 154.901C14.3378 154.432 13.8687 154.08 13.5169 153.728C12.8134 152.908 12.4616 152.087 12.5789 151.149C12.6961 150.211 13.0479 149.507 13.7515 148.803C14.455 148.1 15.3931 147.748 16.3312 147.748C17.2693 147.748 18.2074 148.1 18.9109 148.921C19.2627 149.272 19.4972 149.741 19.7318 150.093L18.6764 150.797C18.4419 150.328 18.2074 149.976 17.8556 149.624C17.3865 149.155 16.9175 148.921 16.3312 148.921C15.7449 149.038 15.2759 149.272 14.6895 149.741C14.2205 150.211 13.8687 150.797 13.7515 151.383C13.6342 151.969 13.7515 152.556 14.2205 153.025C14.3378 153.142 14.455 153.259 14.6895 153.494C14.9241 153.142 15.2759 152.908 15.5104 152.673C15.7449 152.438 16.0967 152.087 16.4485 151.735L17.3865 152.79C16.9175 153.142 16.5657 153.494 16.0967 153.846C15.8622 153.963 15.5104 154.315 15.0413 154.901Z" fill="#404040"/>
<path d="M21.6061 160.882L20.5508 160.061C21.2543 159.24 22.0752 158.302 22.896 157.247C23.7168 156.191 24.4204 155.37 24.8894 154.55L25.9448 155.37C25.3585 156.074 24.6549 156.895 23.8341 157.95C23.0133 159.005 22.3097 160.061 21.6061 160.882Z" fill="#404040"/>
<path d="M35.3262 161.702L34.7399 162.64C34.1536 162.289 33.6846 161.937 33.2155 161.585C32.8637 162.171 32.512 162.758 32.0429 163.461C31.3394 164.516 30.753 165.572 30.1667 166.627L28.9941 165.924C29.5804 164.986 30.284 163.93 30.9876 162.875C31.4566 162.171 31.8084 161.585 32.1602 160.881C31.8084 160.647 31.2221 160.295 30.5185 159.943L31.1048 159.005L35.3262 161.702Z" fill="#404040"/>
<path d="M42.9489 173.077L41.5418 172.49C41.659 172.256 41.7763 171.552 41.8935 170.497L39.7829 169.559C39.0793 170.38 38.6103 170.966 38.6103 171.201L37.2031 170.614C37.2031 170.497 38.024 169.559 39.6656 167.917C41.3072 166.276 42.0108 165.338 42.1281 165.103L43.7697 165.807C43.6525 166.041 43.5352 167.214 43.3007 169.442C43.1834 171.67 43.0661 172.842 42.9489 173.077ZM42.1281 169.324C42.3626 167.448 42.4798 166.393 42.5971 166.276H42.4798C42.4798 166.393 41.7763 167.214 40.4864 168.621L42.1281 169.324Z" fill="#404040"/>
<path d="M53.8542 175.422L53.5024 176.477L49.6328 175.305C49.9846 174.367 50.3364 173.194 50.6882 171.787C51.0399 170.497 51.3917 169.442 51.509 168.621L52.7988 168.973C52.5643 169.793 52.2125 170.849 51.8608 172.139C51.509 173.194 51.2745 174.015 51.0399 174.601C51.978 174.953 52.9161 175.187 53.8542 175.422Z" fill="#404040"/>
<path d="M80.3547 178.236L80.2374 179.409C79.7684 179.526 79.2994 179.643 78.8303 179.643C77.6577 179.643 76.8369 179.291 76.2506 178.705C75.6643 178.001 75.3125 177.181 75.3125 176.243C75.3125 175.187 75.6643 174.366 76.2506 173.663C76.8369 172.959 77.775 172.49 78.8303 172.49C79.1821 172.49 79.6511 172.49 80.0029 172.607L79.8856 173.897C79.5339 173.78 79.1821 173.663 78.8303 173.663C78.1267 173.663 77.6577 173.897 77.3059 174.366C76.9541 174.835 76.8369 175.422 76.8369 176.008C76.8369 176.712 77.0714 177.298 77.4232 177.767C77.775 178.236 78.3613 178.471 79.0648 178.471C79.4166 178.471 79.8857 178.471 80.3547 178.236Z" fill="#404040"/>
<path d="M93.0187 174.601C93.1359 175.657 93.0187 176.595 92.5496 177.415C92.0806 178.236 91.377 178.705 90.4389 178.823C89.6181 178.94 88.7973 178.705 88.211 178.119C87.5074 177.533 87.1556 176.712 87.0384 175.774C86.9211 174.718 87.0384 173.78 87.5074 172.96C87.9765 172.139 88.68 171.67 89.6181 171.552C90.4389 171.435 91.2598 171.67 91.8461 172.256C92.4324 172.725 92.9014 173.546 93.0187 174.601ZM91.7288 174.953C91.6115 174.249 91.377 173.663 90.908 173.194C90.4389 172.842 90.0872 172.608 89.5009 172.725C89.0318 172.842 88.68 173.077 88.4455 173.546C88.211 174.015 88.0937 174.718 88.211 175.422C88.3283 176.126 88.5628 176.712 89.0318 177.181C89.5009 177.533 89.8526 177.767 90.4389 177.65C90.908 177.533 91.2598 177.298 91.4943 176.829C91.7288 176.243 91.8461 175.656 91.7288 174.953Z" fill="#404040"/>
<path d="M105.799 175.07L104.627 175.422C104.627 175.304 103.923 174.718 102.633 173.546C101.343 172.373 100.523 171.552 100.288 171.083H100.171C100.523 171.787 100.757 172.49 100.874 173.077C101.109 173.897 101.461 174.953 101.813 176.125L100.64 176.477C100.405 175.422 100.054 174.249 99.7018 172.959C99.35 171.669 98.9983 170.614 98.6465 169.793L100.054 169.324C100.054 169.559 100.757 170.145 101.813 171.2C102.985 172.256 103.806 173.077 104.04 173.546H104.158C103.806 172.842 103.571 172.138 103.454 171.552C103.22 170.614 102.868 169.676 102.516 168.738L103.689 168.386C103.923 169.207 104.158 170.262 104.627 171.552C105.096 172.842 105.448 174.015 105.799 175.07Z" fill="#404040"/>
<path d="M114.243 164.048L114.712 165.103C114.126 165.338 113.54 165.572 112.953 165.807C113.188 166.393 113.54 167.096 113.891 167.917C114.478 169.09 114.947 170.145 115.416 171.201L114.126 171.787C113.657 170.732 113.188 169.676 112.719 168.386C112.367 167.683 112.015 166.979 111.781 166.393C111.312 166.627 110.843 166.862 110.139 167.214L109.67 166.158L114.243 164.048Z" fill="#404040"/>
<path d="M127.961 164.048L126.672 164.868C126.554 164.634 126.085 164.165 125.264 163.461L123.388 164.634C123.74 165.689 123.975 166.393 124.092 166.51L122.802 167.331C122.685 167.214 122.45 166.041 121.864 163.813C121.395 161.585 121.043 160.412 120.926 160.178L122.45 159.123C122.567 159.24 123.506 160.061 125.264 161.468C127.023 162.875 127.844 163.93 127.961 164.048ZM124.444 162.758C123.036 161.468 122.216 160.881 122.098 160.647H121.981C122.098 160.764 122.333 161.702 122.919 163.578L124.444 162.758Z" fill="#404040"/>
<path d="M136.287 155.487L137.108 156.426C136.873 156.777 136.522 157.129 136.17 157.481C135.349 158.184 134.528 158.536 133.59 158.419C132.652 158.302 131.948 157.95 131.245 157.246C130.541 156.543 130.189 155.605 130.189 154.667C130.189 153.729 130.541 152.908 131.362 152.087C131.714 151.852 131.948 151.618 132.3 151.383L133.004 152.439C132.652 152.556 132.3 152.79 132.066 153.025C131.597 153.494 131.362 153.963 131.479 154.549C131.597 155.136 131.831 155.605 132.3 156.074C132.769 156.543 133.238 156.895 133.942 157.012C134.528 157.129 135.114 156.895 135.583 156.426C135.701 156.308 136.052 155.956 136.287 155.487Z" fill="#404040"/>
<path d="M139.219 143.058L140.157 143.761C139.688 144.23 139.336 144.699 138.984 145.168C139.571 145.52 140.157 145.989 140.743 146.458C141.798 147.279 142.737 147.983 143.675 148.569L142.854 149.624C141.916 148.921 140.978 148.217 139.922 147.396C139.219 146.927 138.632 146.458 138.046 146.107C137.812 146.458 137.46 147.045 136.991 147.631L136.053 146.927L139.219 143.058Z" fill="#404040"/>
<path d="M148.599 135.788C149.889 136.374 150.124 137.429 149.42 139.188C149.185 139.775 148.834 140.244 148.482 140.713L147.427 140.009C147.778 139.54 148.13 139.188 148.247 138.719C148.482 138.25 148.482 137.899 148.482 137.664C148.482 137.429 148.365 137.195 148.13 137.078C147.896 136.96 147.661 136.96 147.427 137.078C147.192 137.195 146.84 137.429 146.371 137.899C145.902 138.25 145.55 138.485 145.199 138.602C144.73 138.719 144.261 138.719 143.791 138.485C143.205 138.25 142.853 137.899 142.736 137.312C142.619 136.726 142.619 136.14 142.971 135.436C143.205 134.85 143.44 134.381 143.791 134.029L144.847 134.615C144.495 134.967 144.261 135.319 144.026 135.788C143.674 136.491 143.791 136.96 144.261 137.078C144.495 137.195 144.73 137.195 144.847 137.078C145.081 136.96 145.316 136.726 145.785 136.374C146.254 135.905 146.606 135.671 147.075 135.553C147.544 135.553 148.013 135.553 148.599 135.788Z" fill="#404040"/>
</svg>
