<svg width="20" height="20" viewBox="0 0 20 20" fill="none" xmlns="http://www.w3.org/2000/svg">
<path d="M12.4993 18.9583H7.49935C2.97435 18.9583 1.04102 17.025 1.04102 12.5V7.49996C1.04102 2.97496 2.97435 1.04163 7.49935 1.04163H9.16602C9.50768 1.04163 9.79102 1.32496 9.79102 1.66663C9.79102 2.00829 9.50768 2.29163 9.16602 2.29163H7.49935C3.65768 2.29163 2.29102 3.65829 2.29102 7.49996V12.5C2.29102 16.3416 3.65768 17.7083 7.49935 17.7083H12.4993C16.341 17.7083 17.7077 16.3416 17.7077 12.5V10.8333C17.7077 10.4916 17.991 10.2083 18.3327 10.2083C18.6743 10.2083 18.9577 10.4916 18.9577 10.8333V12.5C18.9577 17.025 17.0243 18.9583 12.4993 18.9583Z" fill="white"/>
<path d="M7.08409 14.7409C6.57576 14.7409 6.10909 14.5575 5.76742 14.2242C5.35909 13.8159 5.18409 13.2242 5.27576 12.5992L5.63409 10.0909C5.70076 9.60753 6.01742 8.98253 6.35909 8.64086L12.9258 2.07419C14.5841 0.415861 16.2674 0.415861 17.9258 2.07419C18.8341 2.98253 19.2424 3.90753 19.1591 4.83253C19.0841 5.58253 18.6841 6.31586 17.9258 7.06586L11.3591 13.6325C11.0174 13.9742 10.3924 14.2909 9.90909 14.3575L7.40076 14.7159C7.29242 14.7409 7.18409 14.7409 7.08409 14.7409ZM13.8091 2.95753L7.24242 9.52419C7.08409 9.68253 6.90076 10.0492 6.86742 10.2659L6.50909 12.7742C6.47576 13.0159 6.52576 13.2159 6.65076 13.3409C6.77576 13.4659 6.97576 13.5159 7.21742 13.4825L9.72576 13.1242C9.94242 13.0909 10.3174 12.9075 10.4674 12.7492L17.0341 6.18253C17.5758 5.64086 17.8591 5.15753 17.9008 4.70753C17.9508 4.16586 17.6674 3.59086 17.0341 2.94919C15.7008 1.61586 14.7841 1.99086 13.8091 2.95753Z" fill="white"/>
<path d="M16.5418 8.19161C16.4835 8.19161 16.4252 8.18327 16.3752 8.16661C15.2922 7.85823 14.3058 7.27846 13.5096 6.48221C12.7133 5.68597 12.1335 4.69962 11.8252 3.61661C11.7814 3.45641 11.8022 3.28541 11.8833 3.14045C11.9643 2.99549 12.0991 2.88817 12.2585 2.84161C12.5918 2.74994 12.9335 2.94161 13.0252 3.27494C13.5252 5.04994 14.9335 6.45827 16.7085 6.95827C17.0418 7.04994 17.2335 7.39994 17.1418 7.73327C17.0668 8.01661 16.8168 8.19161 16.5418 8.19161Z" fill="white"/>
</svg>
