<svg width="25" height="24" viewBox="0 0 25 24" fill="none" xmlns="http://www.w3.org/2000/svg">
<path d="M9.5 9.236C10.03 9.711 10.732 10 11.5 10H13.5C14.2381 10.001 14.9505 9.72888 15.5 9.236H9.5ZM9.5 9.236C8.95054 9.72888 8.23814 10.001 7.5 10L9.5 9.236ZM8.55 4V3.95H8.5H5.5C5.22153 3.95 4.95445 4.06062 4.75754 4.25754C4.56063 4.45445 4.45 4.72152 4.45 5V7C4.45 7.27848 4.56063 7.54555 4.75754 7.74246C4.95445 7.93937 5.22153 8.05 5.5 8.05H7.5C7.77848 8.05 8.04555 7.93937 8.24247 7.74246C8.43938 7.54555 8.55 7.27848 8.55 7V4ZM5.51 9.95H5.46V10V19.965V20.015H5.51H7.5H7.55V19.965V15C7.55 14.4828 7.75545 13.9868 8.12114 13.6211C8.48684 13.2554 8.98283 13.05 9.5 13.05H11.5C12.0172 13.05 12.5132 13.2554 12.8789 13.6211C13.2446 13.9868 13.45 14.4828 13.45 15V19.965V20.015H13.5H19.513H19.563V19.965V10V9.95H19.513H17.5C16.7448 9.95 16.0545 9.66585 15.5334 9.19877L15.5 9.16884L15.4666 9.19878C14.9263 9.68342 14.2259 9.951 13.5001 9.95H13.5H11.5C10.7448 9.95 10.0545 9.66585 9.53337 9.19877L9.49999 9.16884L9.46662 9.19878C8.92634 9.68342 8.22586 9.951 7.50007 9.95H7.5H5.51ZM3.50817 9.17712C3.21173 8.90635 2.9737 8.57766 2.8089 8.21118C2.63767 7.83041 2.54942 7.41757 2.55 7.00007V7V5C2.55 4.21761 2.86081 3.46727 3.41404 2.91403C3.96727 2.3608 4.71761 2.05 5.5 2.05H19.5C20.2824 2.05 21.0327 2.3608 21.586 2.91403C22.1392 3.46727 22.45 4.21761 22.45 5V7C22.45 7.86733 22.0764 8.64803 21.4795 9.18792L21.463 9.20281V9.225V19.965C21.463 20.4822 21.2576 20.9782 20.8919 21.3439C20.5262 21.7096 20.0302 21.915 19.513 21.915H11.873V21.9141L11.8637 21.9159C11.7438 21.9385 11.622 21.95 11.5 21.95H9.5C9.37798 21.95 9.25621 21.9385 9.13629 21.9159L9.13646 21.915H9.127H5.511C4.99383 21.915 4.49784 21.7096 4.13214 21.3439C3.76645 20.9782 3.561 20.4822 3.561 19.965V9.245V9.1243L3.50817 9.17712ZM11.55 15V14.95H11.5H9.5H9.45V15V19.965V20.015H9.5H11.5V19.966H11.55V19.965V19.915V15ZM14.55 4V3.95H14.5H10.5H10.45V4V7C10.45 7.27848 10.5606 7.54555 10.7575 7.74246C10.9545 7.93937 11.2215 8.05 11.5 8.05H13.5C13.7785 8.05 14.0456 7.93937 14.2425 7.74246C14.4394 7.54555 14.55 7.27848 14.55 7V4ZM16.5 3.95H16.45V4V7C16.45 7.27848 16.5606 7.54555 16.7575 7.74246C16.9545 7.93937 17.2215 8.05 17.5 8.05H19.5C19.7785 8.05 20.0456 7.93937 20.2425 7.74246C20.4394 7.54555 20.55 7.27848 20.55 7V5C20.55 4.72152 20.4394 4.45445 20.2425 4.25754C20.0456 4.06062 19.7785 3.95 19.5 3.95H16.5ZM16.5 13.05H17.5C17.752 13.05 17.9936 13.1501 18.1718 13.3282C18.3499 13.5064 18.45 13.748 18.45 14V17C18.45 17.252 18.3499 17.4936 18.1718 17.6718C17.9936 17.8499 17.752 17.95 17.5 17.95H16.5C16.248 17.95 16.0064 17.8499 15.8283 17.6718C15.6501 17.4936 15.55 17.252 15.55 17V14C15.55 13.748 15.6501 13.5064 15.8283 13.3282C16.0064 13.1501 16.248 13.05 16.5 13.05Z" fill="#404040" stroke="white" stroke-width="0.1"/>
</svg>
