<svg width="25" height="24" viewBox="0 0 25 24" fill="none" xmlns="http://www.w3.org/2000/svg">
<path d="M8.74527 12.07C8.8861 12.0175 9.03754 11.9903 9.19065 11.9898C9.34376 11.9893 9.49543 12.0156 9.63669 12.0672C9.77795 12.1188 9.90593 12.1945 10.0131 12.29C10.1202 12.3855 10.2043 12.4988 10.2605 12.6231C10.3166 12.7475 10.3436 12.8804 10.3399 13.014C10.3362 13.1477 10.3018 13.2793 10.2388 13.4011C10.1759 13.523 10.0855 13.6325 9.97321 13.7234C9.86088 13.8142 9.72884 13.8845 9.58488 13.93C8.8192 14.1934 8.16204 14.6519 7.69891 15.2458C7.23578 15.8397 6.98812 16.5415 6.98816 17.26V19C6.98816 19.2652 7.10884 19.5196 7.32365 19.7071C7.53846 19.8946 7.82981 20 8.1336 20H17.2972C17.601 20 17.8923 19.8946 18.1071 19.7071C18.3219 19.5196 18.4426 19.2652 18.4426 19V17.353C18.4427 16.6115 18.1847 15.8874 17.7028 15.2768C17.2208 14.6662 16.5377 14.1979 15.7439 13.934C15.5991 13.8901 15.4658 13.8213 15.352 13.7316C15.2382 13.6419 15.1461 13.5332 15.0813 13.4119C15.0165 13.2905 14.9803 13.1591 14.9748 13.0253C14.9692 12.8916 14.9945 12.7582 15.0491 12.6331C15.1037 12.508 15.1866 12.3938 15.2927 12.2972C15.3988 12.2006 15.5261 12.1235 15.6669 12.0706C15.8078 12.0177 15.9593 11.9901 16.1127 11.9893C16.266 11.9885 16.4179 12.0146 16.5595 12.066C17.787 12.4742 18.8434 13.1983 19.5888 14.1425C20.3342 15.0867 20.7334 16.2063 20.7335 17.353V19C20.7335 19.7956 20.3715 20.5587 19.727 21.1213C19.0826 21.6839 18.2085 22 17.2972 22H8.1336C7.22223 22 6.34818 21.6839 5.70375 21.1213C5.05931 20.5587 4.69727 19.7956 4.69727 19V17.26C4.69742 16.1402 5.0836 15.0463 5.80555 14.1206C6.52751 13.195 7.55183 12.4805 8.74527 12.07ZM12.7154 2C13.9305 2 15.0959 2.42143 15.9552 3.17157C16.8144 3.92172 17.2972 4.93913 17.2972 6V8C17.2972 9.06087 16.8144 10.0783 15.9552 10.8284C15.0959 11.5786 13.9305 12 12.7154 12C11.5002 12 10.3348 11.5786 9.47557 10.8284C8.61632 10.0783 8.1336 9.06087 8.1336 8V6C8.1336 4.93913 8.61632 3.92172 9.47557 3.17157C10.3348 2.42143 11.5002 2 12.7154 2ZM12.7154 4C12.1078 4 11.5251 4.21071 11.0955 4.58579C10.6659 4.96086 10.4245 5.46957 10.4245 6V8C10.4245 8.53043 10.6659 9.03914 11.0955 9.41421C11.5251 9.78929 12.1078 10 12.7154 10C13.323 10 13.9057 9.78929 14.3353 9.41421C14.7649 9.03914 15.0063 8.53043 15.0063 8V6C15.0063 5.46957 14.7649 4.96086 14.3353 4.58579C13.9057 4.21071 13.323 4 12.7154 4Z" fill="#404040"/>
</svg>
